<svg width="150" height="150" viewBox="0 0 150 150" fill="none" xmlns="http://www.w3.org/2000/svg">
<g clip-path="url(#clip0_92_2)">
<rect width="150" height="150" fill="white"/>
<circle cx="75" cy="75" r="75" fill="#FDE9EA"/>
<g filter="url(#filter0_d_92_2)">
<mask id="mask0_92_2" style="mask-type:luminance" maskUnits="userSpaceOnUse" x="25" y="25" width="100" height="100">
<path d="M25 25H125V125H25V25Z" fill="white"/>
</mask>
<g mask="url(#mask0_92_2)">
<path d="M112.203 49.6291C109.716 49.6291 107.398 50.4246 105.43 51.7761L99.2031 42.3241C101.055 40.5392 102.25 37.956 102.25 35.0448C102.25 29.6787 98.263 25.3105 93.3594 25.3105C88.4557 25.3105 84.4688 29.6787 84.4688 35.0448C84.4688 38.9397 86.5807 42.2842 89.6068 43.8381L87.1328 51.4625L76.1068 46.2874C76.5885 44.7962 76.8464 43.2394 76.8464 41.637C76.8464 33.9129 71.1042 27.6286 64.0495 27.6286C56.9922 27.6286 51.2526 33.9129 51.2526 41.637C51.2526 43.553 51.6068 45.3807 52.2474 47.0458L41.4089 52.9651C39.8359 50.2193 37.0651 48.3745 33.8906 48.3745C28.9896 48.3745 25 52.7427 25 58.1088C25 63.4777 28.9896 67.8431 33.8906 67.8431C34.2005 67.8431 34.4922 67.7775 34.7917 67.7433L36.8698 79.1027C31.4297 80.7166 27.4115 86.1511 27.4115 92.6121C27.4115 100.336 33.151 106.62 40.2057 106.62C43.8229 106.62 47.0885 104.961 49.4167 102.312L57.4479 109.711C56.4531 111.282 55.8646 113.181 55.8646 115.231C55.8646 120.6 59.8542 124.968 64.7552 124.968C69.6589 124.968 73.6458 120.6 73.6458 115.231C73.6458 111.579 71.776 108.425 69.0495 106.76L72.5547 97.9497C74.4922 98.7566 76.5859 99.2185 78.7786 99.2185C88.4688 99.2185 96.3542 90.5848 96.3542 79.9752C96.3542 77.603 95.9427 75.3419 95.224 73.2434L101.057 70.4976C102.93 74.1244 106.232 76.7447 110.12 77.4462L109.156 88.2839C109.151 88.2839 109.146 88.281 109.141 88.281C104.24 88.281 100.25 92.6492 100.25 98.0153C100.25 103.384 104.24 107.752 109.141 107.752C114.044 107.752 118.031 103.384 118.031 98.0153C118.031 93.285 114.932 89.3417 110.844 88.4692L111.81 77.6258C111.943 77.6315 112.07 77.6486 112.203 77.6486C119.26 77.6486 125 71.3644 125 63.6374C125 55.9133 119.26 49.6291 112.203 49.6291ZM104.969 104.411C105.695 103.498 106.771 102.66 107.484 102.503C108.169 102.352 108.69 101.819 108.844 101.123C108.896 100.901 108.904 100.607 108.922 100.037C108.93 99.7403 108.81 99.458 108.596 99.2755C108.148 98.8935 107.758 98.2776 107.549 97.6304C107.477 97.4022 107.331 97.2255 107.148 97.1171C107.143 97.0886 107.138 97.0572 107.133 97.0287C107.281 96.8548 107.37 96.621 107.37 96.3729C107.365 95.3037 107.365 94.3827 107.721 93.9893C107.956 93.7298 108.43 93.5986 109.154 93.5986C109.852 93.5986 110.326 93.7298 110.56 93.9893C110.917 94.3827 110.917 95.3037 110.911 96.3929C110.911 96.641 111 96.8691 111.146 97.0373C111.143 97.0629 111.138 97.0915 111.135 97.1171C110.951 97.2226 110.805 97.4022 110.732 97.6304C110.523 98.2776 110.133 98.8935 109.685 99.2755C109.471 99.458 109.354 99.8116 109.362 100.108C109.378 100.607 109.385 100.901 109.438 101.112C109.594 101.819 110.117 102.355 110.797 102.503C111.51 102.66 112.586 103.498 113.313 104.411C112.135 105.337 110.701 105.896 109.141 105.896C107.583 105.896 106.148 105.337 104.969 104.411ZM116.336 98.0153C116.336 99.9798 115.654 101.753 114.565 103.136C113.69 102.064 112.315 100.946 111.086 100.687C111.076 100.624 111.07 100.533 111.068 100.419C111.529 99.9285 111.922 99.3069 112.19 98.634C112.503 98.3831 112.74 97.944 112.831 97.3823C112.911 96.8377 112.823 96.3416 112.607 95.9937C112.604 94.7192 112.536 93.5331 111.76 92.6805C111.19 92.0504 110.336 91.7453 109.125 91.7425C107.945 91.7453 107.094 92.0504 106.521 92.6805C105.747 93.5302 105.677 94.7078 105.674 95.9937C105.458 96.3444 105.37 96.8405 105.453 97.3965C105.544 97.9525 105.779 98.3888 106.091 98.6369C106.362 99.3069 106.75 99.9256 107.211 100.413C107.201 100.524 107.182 100.621 107.151 100.684C105.961 100.946 104.591 102.064 103.716 103.136C102.628 101.753 101.945 99.9798 101.945 98.0153C101.945 93.6728 105.174 90.1372 109.141 90.1372C113.109 90.1372 116.336 93.6728 116.336 98.0153ZM92.8151 36.3079C92.3672 35.9259 91.9766 35.3071 91.7682 34.657C91.6953 34.4318 91.5495 34.255 91.3672 34.1467C91.362 34.1181 91.3568 34.0868 91.3516 34.0583C91.5 33.8843 91.5859 33.6505 91.5859 33.4025C91.5833 32.3332 91.5807 31.4123 91.9401 31.0188C92.1745 30.7593 92.6484 30.6282 93.3698 30.6282C94.0703 30.6282 94.5443 30.7593 94.7786 31.0188C95.138 31.4123 95.1354 32.3332 95.1328 33.4224C95.1328 33.6705 95.2188 33.8986 95.3646 34.064C95.3594 34.0925 95.3568 34.121 95.3516 34.1467C95.1693 34.2522 95.0234 34.4318 94.9505 34.6599C94.7422 35.3071 94.3516 35.9259 93.9036 36.3079C93.6927 36.4876 93.5729 36.767 93.5807 37.0607C93.5938 37.6509 93.6068 37.9303 93.6536 38.1413C93.8125 38.8456 94.3333 39.3816 95.0156 39.5327C95.7292 39.6895 96.8047 40.5278 97.5313 41.4402C96.3516 42.3669 94.9167 42.9257 93.3594 42.9257C91.8021 42.9257 90.3672 42.3669 89.1875 41.4402C89.9141 40.5278 90.9896 39.6895 91.7057 39.5327C92.3854 39.3816 92.9063 38.8456 93.0651 38.1413C93.112 37.9303 93.125 37.6509 93.138 37.0607C93.1458 36.767 93.026 36.4876 92.8151 36.3079ZM86.1615 35.0448C86.1615 30.6995 89.3906 27.1667 93.3594 27.1667C97.3281 27.1667 100.557 30.6995 100.557 35.0448C100.557 37.0093 99.8724 38.7828 98.7839 40.1657C97.9063 39.0908 96.5313 37.9759 95.3047 37.7222C95.2943 37.6594 95.2891 37.5625 95.2839 37.4484C95.7474 36.9609 96.138 36.3364 96.4089 35.6635C96.7214 35.4126 96.9557 34.9764 97.0495 34.4147C97.1328 33.8672 97.0443 33.3711 96.8281 33.0204C96.8229 31.7487 96.7552 30.5626 95.9792 29.7101C95.4089 29.0799 94.5573 28.7748 93.3438 28.772C92.1615 28.7748 91.3099 29.0799 90.7396 29.7101C89.9661 30.5597 89.8958 31.7373 89.8906 33.0233C89.6745 33.374 89.5859 33.8729 89.6719 34.4261C89.763 34.9821 89.9974 35.4183 90.3099 35.6664C90.5807 36.3364 90.9688 36.9552 91.4271 37.4399C91.4167 37.5539 91.401 37.6509 91.3698 37.7136C90.1823 37.9731 88.8125 39.0908 87.9349 40.1657C86.8464 38.7828 86.1615 37.0093 86.1615 35.0448ZM91.2031 44.4569C91.8984 44.6479 92.612 44.7791 93.3594 44.7791C94.9948 44.7791 96.5104 44.2601 97.8281 43.4105L104.049 52.851C102.586 54.1826 101.404 55.8705 100.596 57.7809L88.6927 52.1952L91.2031 44.4569ZM78.7786 60.7291C69.0885 60.7291 61.2031 69.3628 61.2031 79.9752C61.2031 81.5691 61.3984 83.1088 61.7344 84.5886L52.1823 87.7193C51.1589 84.734 49.2396 82.2335 46.7734 80.6111L58.987 54.4991C60.5417 55.2347 62.25 55.6481 64.0495 55.6481C68.888 55.6481 73.2448 52.6572 75.4193 47.9839L86.5651 53.216L83.8568 61.556C82.2474 61.0228 80.5443 60.7291 78.7786 60.7291ZM62.9844 43.8638C62.263 43.2451 61.6302 42.2528 61.2969 41.2121C61.2031 40.9213 60.9896 40.7103 60.7344 40.6276C60.7031 40.562 60.6693 40.4594 60.6458 40.3282C60.625 40.18 60.6276 40.0659 60.6354 39.9918C60.862 39.8121 61.0052 39.5071 61.0052 39.1934C61.0026 37.7592 61 36.5246 61.3828 35.7405C61.6354 35.2244 62.1615 34.6285 64.0677 34.6257C65.9349 34.6285 66.4635 35.2244 66.7161 35.7405C67.099 36.5246 67.0964 37.7592 67.0938 39.2305C67.0938 39.547 67.237 39.8321 67.4635 40.0003C67.4714 40.0745 67.474 40.18 67.4531 40.3111C67.4297 40.4537 67.3932 40.5592 67.3646 40.6276C67.1068 40.7103 66.8932 40.9213 66.8021 41.2121C66.4688 42.2528 65.8359 43.2451 65.1146 43.8638C64.901 44.0463 64.7813 44.3542 64.7891 44.6479C64.8047 45.3807 64.8203 45.8426 64.888 46.1277C65.0833 47.0088 65.737 47.6731 66.5911 47.8585C67.8229 48.1322 69.7396 49.6433 70.8568 51.203C68.9453 52.8311 66.5781 53.792 64.0495 53.792C61.4792 53.792 59.1172 52.8225 57.2344 51.2116C58.349 49.6491 60.2734 48.1322 61.5078 47.8585C62.362 47.6731 63.0156 47.0088 63.2109 46.1334C63.2786 45.8426 63.2917 45.3807 63.3099 44.6222C63.3177 44.3286 63.1979 44.0463 62.9844 43.8638ZM64.0495 29.4848C70.1693 29.4848 75.151 34.9365 75.151 41.637C75.151 43.2993 74.849 44.9131 74.2552 46.4271C73.7318 47.7644 72.9896 48.9362 72.112 49.9541C70.7188 48.058 68.5417 46.3986 66.9219 46.0393C66.8464 46.0222 66.5911 45.9481 66.5339 45.6915C66.5078 45.5575 66.5 45.3066 66.4922 45.0157C67.2266 44.2858 67.8438 43.3135 68.25 42.2528C68.6719 41.9706 68.9974 41.3918 69.125 40.6276C69.2396 39.8578 69.1068 39.1906 68.7891 38.7714C68.7891 37.3173 68.7422 35.9572 68.2109 34.8652C67.526 33.4595 66.1719 32.7752 64.0286 32.7695C61.9271 32.7752 60.5729 33.4595 59.8854 34.8652C59.3594 35.9487 59.3125 37.3002 59.3099 38.7714C58.9922 39.1934 58.8594 39.8635 58.9766 40.6419C59.1016 41.3946 59.4271 41.9734 59.849 42.2557C60.2526 43.3135 60.8724 44.2858 61.6068 45.0157C61.599 45.3009 61.5885 45.5546 61.5677 45.6886C61.5078 45.9481 61.2526 46.0222 61.1745 46.0393C59.5547 46.3986 57.375 48.0609 55.9818 49.9598C54.1068 47.7843 52.9479 44.8589 52.9479 41.637C52.9479 34.9365 57.9271 29.4848 64.0495 29.4848ZM26.6953 58.1088C26.6953 53.7634 29.9245 50.2307 33.8906 50.2307C37.8594 50.2307 41.0859 53.7634 41.0859 58.1088C41.0859 60.0705 40.4036 61.8468 39.3177 63.2268C38.4401 62.1548 37.0651 61.0399 35.8359 60.7861C35.8255 60.7206 35.8229 60.6236 35.8177 60.5096C36.2813 60.022 36.6719 59.4004 36.9427 58.7247C37.2526 58.4766 37.4896 58.0375 37.5807 57.4758C37.6641 56.917 37.5755 56.4208 37.3594 56.0758C37.349 54.1769 37.1406 51.8417 33.875 51.836C32.349 51.8388 31.3568 52.3521 30.8438 53.407C30.4688 54.1769 30.4271 55.095 30.4245 56.0872C30.2083 56.4379 30.1198 56.9369 30.2031 57.4901C30.2943 58.0461 30.5286 58.4795 30.8411 58.7304C31.112 59.3976 31.5 60.0163 31.9609 60.5039C31.9505 60.6179 31.9323 60.7149 31.901 60.7747C30.7135 61.0371 29.3437 62.1548 28.4661 63.2268C27.3776 61.8468 26.6953 60.0733 26.6953 58.1088ZM29.7214 64.5042C30.4479 63.5918 31.5208 62.7535 32.2344 62.5939C32.9167 62.4456 33.4401 61.9124 33.5964 61.2024C33.6458 60.9886 33.6563 60.6978 33.6719 60.1275C33.6797 59.8338 33.5599 59.5515 33.3464 59.3691C32.8984 58.987 32.5078 58.3711 32.2995 57.721C32.2266 57.4958 32.0807 57.3161 31.8984 57.2106C31.8932 57.1821 31.888 57.1508 31.8828 57.1194C32.0313 56.9455 32.1198 56.7117 32.1198 56.4636C32.1172 55.5797 32.1146 54.7443 32.3385 54.2824C32.4193 54.1199 32.625 53.695 33.9036 53.6922C35.6042 53.695 35.6667 54.2225 35.6641 56.4864C35.6641 56.7316 35.7526 56.9597 35.8984 57.128C35.8932 57.1565 35.888 57.1821 35.8854 57.2106C35.7005 57.3161 35.5547 57.4958 35.4818 57.721C35.2734 58.3711 34.8828 58.987 34.4375 59.3691C34.224 59.5487 34.1042 59.8509 34.112 60.1475C34.125 60.6749 34.1354 60.9829 34.1875 61.2024C34.3438 61.9124 34.8646 62.4456 35.5469 62.5939C36.2604 62.7535 37.3359 63.5918 38.0625 64.5042C36.8828 65.428 35.4505 65.9869 33.8906 65.9869C32.3333 65.9869 30.901 65.428 29.7214 64.5042ZM36.4531 67.384C40.1016 66.1694 42.7813 62.4969 42.7813 58.1088C42.7813 56.877 42.5495 55.7109 42.1667 54.6245L53.0156 48.6996C54.1042 50.7297 55.6432 52.429 57.4818 53.6408L45.2708 79.75C43.7161 79.0144 42.0052 78.6009 40.2057 78.6009C39.638 78.6009 39.0807 78.658 38.5313 78.7349L36.4531 67.384ZM29.1068 92.6121C29.1068 85.9087 34.0859 80.4571 40.2057 80.4571C46.3281 80.4571 51.3073 85.9087 51.3073 92.6121C51.3073 95.8312 50.1484 98.7566 48.2734 100.935C46.8802 99.0332 44.7005 97.3709 43.0807 97.0145C43.0026 96.9974 42.7474 96.9204 42.6901 96.6638C42.6667 96.5298 42.6563 96.2817 42.6484 95.9909C43.3828 95.2581 44.0026 94.2858 44.4063 93.228C44.8281 92.9429 45.1563 92.364 45.2813 91.5999C45.3958 90.8301 45.263 90.1657 44.9453 89.7437C44.9453 88.2924 44.901 86.9295 44.3698 85.8375C43.6823 84.4346 42.3281 83.7475 40.1849 83.7446C38.0833 83.7475 36.7292 84.4346 36.0443 85.8375C35.5156 86.921 35.4688 88.2753 35.4661 89.7466C35.1484 90.1686 35.0182 90.8386 35.1328 91.617C35.2578 92.3697 35.5833 92.9457 36.0052 93.228C36.4115 94.2858 37.0286 95.2609 37.763 95.9909C37.7578 96.276 37.7474 96.5269 37.724 96.6609C37.6667 96.9204 37.4089 96.9974 37.3307 97.0145C35.7109 97.3709 33.5313 99.0332 32.138 100.932C30.2656 98.7566 29.1068 95.8312 29.1068 92.6121ZM33.3932 102.184C34.5078 100.624 36.4297 99.1073 37.6667 98.8336C38.5208 98.6454 39.1745 97.9811 39.3698 97.1057C39.4349 96.8177 39.4505 96.353 39.4688 95.5945C39.474 95.3009 39.3542 95.0214 39.1432 94.839C38.4193 94.2202 37.7891 93.228 37.4531 92.1844C37.362 91.8964 37.1484 91.6854 36.8906 91.6028C36.862 91.5372 36.8255 91.4345 36.8021 91.3005C36.7813 91.1551 36.7839 91.041 36.7917 90.9641C37.0182 90.7844 37.1615 90.4822 37.1615 90.1657C37.1589 88.7344 37.1563 87.4969 37.5391 86.7128C37.7917 86.1967 38.3203 85.6037 40.224 85.6008C42.0938 85.6037 42.6224 86.1967 42.8724 86.7128C43.2578 87.4969 43.2526 88.7344 43.25 90.2056C43.25 90.5193 43.3932 90.8044 43.6198 90.9726C43.6302 91.0468 43.6302 91.1522 43.612 91.2834C43.5885 91.4288 43.5521 91.5343 43.5208 91.6028C43.2656 91.6854 43.0521 91.8964 42.9583 92.1844C42.625 93.228 41.9922 94.2202 41.2708 94.839C41.0599 95.0214 40.9375 95.3265 40.9453 95.6202C40.9635 96.353 40.9766 96.8177 41.0443 97.1C41.2396 97.9811 41.8906 98.6454 42.7474 98.8336C43.9818 99.1073 45.9063 100.624 47.0208 102.184C45.138 103.795 42.776 104.764 40.2057 104.764C37.638 104.764 35.276 103.795 33.3932 102.184ZM60.5833 121.627C61.3099 120.714 62.3854 119.876 63.0964 119.719C63.7839 119.568 64.3047 119.035 64.4583 118.339C64.5104 118.117 64.5182 117.823 64.5365 117.253C64.5443 116.956 64.4245 116.674 64.2109 116.492C63.763 116.112 63.3724 115.496 63.1641 114.846C63.0911 114.618 62.9453 114.441 62.763 114.333C62.7578 114.305 62.7526 114.273 62.7474 114.245C62.8958 114.071 62.9844 113.837 62.9844 113.589C62.9792 112.523 62.9792 111.599 63.3359 111.205C63.5703 110.949 64.0443 110.815 64.7682 110.815C65.4661 110.815 65.9401 110.949 66.1745 111.205C66.5313 111.599 66.5313 112.523 66.526 113.612C66.526 113.857 66.6146 114.085 66.7604 114.253C66.7578 114.279 66.7526 114.307 66.7474 114.333C66.5651 114.441 66.4193 114.618 66.3464 114.846C66.138 115.496 65.7474 116.112 65.2995 116.492C65.0859 116.674 64.9688 117.028 64.9766 117.324C64.9922 117.823 65 118.117 65.0495 118.322C65.2057 119.035 65.7266 119.568 66.4115 119.719C67.125 119.876 68.2005 120.714 68.9271 121.627C67.7474 122.553 66.3151 123.112 64.7552 123.112C63.1979 123.112 61.763 122.553 60.5833 121.627ZM71.9505 115.231C71.9505 117.196 71.2682 118.972 70.1797 120.352C69.3021 119.28 67.9271 118.162 66.6979 117.906C66.6901 117.84 66.6849 117.749 66.6823 117.635C67.1432 117.147 67.5339 116.526 67.8047 115.853C68.1172 115.602 68.3516 115.163 68.4427 114.604C68.526 114.054 68.4401 113.558 68.2214 113.207C68.2188 111.935 68.151 110.749 67.375 109.897C66.8047 109.266 65.9505 108.961 64.7396 108.958C63.5599 108.961 62.7057 109.266 62.1354 109.897C61.362 110.746 61.2917 111.924 61.2891 113.21C61.0703 113.56 60.9844 114.059 61.0677 114.613C61.1589 115.169 61.3932 115.605 61.7083 115.853C61.9766 116.523 62.3646 117.142 62.8255 117.629C62.8151 117.74 62.7969 117.835 62.7656 117.9C61.5755 118.162 60.2057 119.277 59.3307 120.352C58.2422 118.969 57.5599 117.196 57.5599 115.231C57.5599 110.889 60.7891 107.353 64.7552 107.353C68.724 107.353 71.9505 110.889 71.9505 115.231ZM67.4948 106.019C66.6276 105.708 65.7188 105.497 64.7552 105.497C62.3359 105.497 60.1432 106.569 58.5391 108.291L50.5052 100.889C52.0677 98.5656 53.0026 95.7086 53.0026 92.6121C53.0026 91.54 52.8828 90.4993 52.6719 89.4957L62.2214 86.3678C63.7526 91.1095 66.9271 94.9929 71.0026 97.2055L67.4948 106.019ZM68.7292 93.4276C68.763 93.3905 68.8047 93.3734 68.8333 93.3306C70.4401 90.984 73.276 88.7372 75.151 88.3209C76.2188 88.0871 77.0339 87.266 77.2786 86.1768C77.3594 85.8175 77.3776 85.2073 77.4063 84.1438C77.4141 83.8473 77.2917 83.565 77.0807 83.3854C76.0208 82.4758 75.0938 81.0245 74.6068 79.5019C74.4974 79.1655 74.2292 78.9345 73.9219 78.8889C73.849 78.7806 73.737 78.541 73.6797 78.1989C73.625 77.8396 73.6589 77.5688 73.6953 77.4405C73.9844 77.2779 74.1771 76.9215 74.1771 76.5566C74.1719 74.5008 74.1693 72.7244 74.7448 71.5412C75.112 70.7913 75.9245 69.7905 78.8047 69.7848C81.6302 69.7905 82.4453 70.7884 82.8099 71.5412C83.388 72.7216 83.3828 74.4951 83.3802 76.605C83.3802 76.97 83.5729 77.295 83.8646 77.4462C83.8984 77.5745 83.9323 77.8396 83.8776 78.1846C83.8203 78.5382 83.7083 78.7806 83.638 78.8889C83.3281 78.9345 83.0599 79.1655 82.9505 79.5019C82.4635 81.0245 81.5391 82.4758 80.4766 83.3854C80.2656 83.565 80.1432 83.8473 80.151 84.141C80.1745 85.1617 80.1979 85.809 80.2813 86.1711C80.5234 87.266 81.3385 88.0871 82.401 88.3209C84.2786 88.7372 87.1172 90.984 88.724 93.3306C88.7526 93.3734 88.7917 93.3962 88.8229 93.4304C86.0859 95.8854 82.5885 97.3623 78.7786 97.3623C74.9688 97.3623 71.4688 95.8854 68.7292 93.4276ZM90.0625 92.193C88.2057 89.4985 84.9948 87.0008 82.7344 86.5018C82.3151 86.4106 82.013 86.1226 81.9245 85.7291C81.8932 85.5694 81.8698 85.0277 81.8568 84.543C82.9271 83.5165 83.8255 82.1108 84.3906 80.5769C84.9453 80.2632 85.3828 79.5133 85.5495 78.5011C85.7031 77.4718 85.5156 76.5993 85.0755 76.1032C85.0755 74.0617 85.0313 72.1485 84.3073 70.6658C83.4089 68.8296 81.612 67.9343 78.7474 67.9286C75.9427 67.9343 74.1432 68.8296 73.25 70.6687C72.5313 72.1428 72.4818 74.0417 72.4818 76.1061C72.0443 76.5993 71.8542 77.4775 72.0078 78.5154C72.1771 79.5162 72.612 80.2632 73.1667 80.5769C73.7318 82.1108 74.6302 83.5165 75.7005 84.5401C75.6849 85.0277 75.6667 85.5723 75.6328 85.732C75.5443 86.1226 75.2422 86.4106 74.8203 86.5018C72.5599 87.0008 69.3516 89.4985 67.4948 92.193C64.6563 89.0509 62.8984 84.734 62.8984 79.9752C62.8984 70.3864 70.0208 62.5853 78.7786 62.5853C87.5365 62.5853 94.6615 70.3864 94.6615 79.9752C94.6615 84.734 92.901 89.0509 90.0625 92.193ZM94.5521 71.5383C92.6667 67.3298 89.4323 63.9767 85.4531 62.1804L88.125 53.9459L99.9766 59.5116C99.6094 60.8175 99.4089 62.2032 99.4089 63.6374C99.4089 65.4708 99.7396 67.2158 100.328 68.821L94.5521 71.5383ZM105.391 73.212C106.503 71.6524 108.427 70.1326 109.664 69.8618C110.521 69.6736 111.172 69.0092 111.367 68.1282C111.432 67.8402 111.448 67.3669 111.466 66.6227C111.474 66.329 111.354 66.0467 111.141 65.8671C110.419 65.2455 109.786 64.2561 109.453 63.2126C109.359 62.9246 109.146 62.7108 108.891 62.6281C108.859 62.5625 108.823 62.4627 108.802 62.3258C108.781 62.1804 108.781 62.0664 108.792 61.9922C109.016 61.8126 109.159 61.5132 109.159 61.1967C109.156 59.7654 109.154 58.5279 109.536 57.741C109.789 57.2249 110.318 56.6318 112.224 56.6261C114.091 56.6318 114.62 57.2249 114.872 57.741C115.255 58.5279 115.253 59.7654 115.25 61.2309C115.25 61.5474 115.393 61.8326 115.62 62.0008C115.628 62.0749 115.628 62.1804 115.609 62.3144C115.586 62.457 115.549 62.5625 115.518 62.6281C115.263 62.7108 115.049 62.9246 114.956 63.2126C114.622 64.2561 113.99 65.2455 113.268 65.8671C113.057 66.0467 112.935 66.329 112.943 66.6227C112.961 67.3669 112.977 67.8402 113.042 68.1282C113.237 69.0092 113.888 69.6736 114.745 69.8618C115.982 70.1326 117.906 71.6524 119.018 73.212C117.135 74.823 114.773 75.7924 112.203 75.7924C109.635 75.7924 107.273 74.823 105.391 73.212ZM120.271 71.9603C118.88 70.0613 116.701 68.3991 115.078 68.0426C115 68.0255 114.745 67.9486 114.688 67.6976C114.664 67.5608 114.656 67.307 114.646 67.0162C115.38 66.2863 116 65.314 116.404 64.2561C116.828 63.971 117.154 63.3922 117.279 62.6309C117.396 61.8611 117.263 61.1939 116.945 60.7719C116.945 59.3177 116.898 57.9577 116.367 56.8685C115.682 55.46 114.328 54.7756 112.182 54.7699C110.081 54.7756 108.727 55.46 108.042 56.8685C107.513 57.952 107.466 59.3035 107.466 60.7719C107.146 61.1939 107.016 61.8639 107.133 62.6395C107.255 63.3979 107.581 63.9739 108.005 64.2561C108.409 65.314 109.029 66.2863 109.763 67.0162C109.755 67.307 109.745 67.5579 109.721 67.6891C109.664 67.9486 109.409 68.0255 109.331 68.0426C107.708 68.3991 105.529 70.0613 104.135 71.9632C102.263 69.7848 101.104 66.8594 101.104 63.6374C101.104 56.9369 106.083 51.4853 112.203 51.4853C118.326 51.4853 123.305 56.9369 123.305 63.6374C123.305 66.8594 122.146 69.7848 120.271 71.9603Z" fill="white"/>
</g>
</g>
</g>
<defs>
<filter id="filter0_d_92_2" x="21" y="25.3105" width="108" height="113.658" filterUnits="userSpaceOnUse" color-interpolation-filters="sRGB">
<feFlood flood-opacity="0" result="BackgroundImageFix"/>
<feColorMatrix in="SourceAlpha" type="matrix" values="0 0 0 0 0 0 0 0 0 0 0 0 0 0 0 0 0 0 127 0" result="hardAlpha"/>
<feOffset dy="10"/>
<feGaussianBlur stdDeviation="2"/>
<feComposite in2="hardAlpha" operator="out"/>
<feColorMatrix type="matrix" values="0 0 0 0 0 0 0 0 0 0 0 0 0 0 0 0 0 0 0.25 0"/>
<feBlend mode="normal" in2="BackgroundImageFix" result="effect1_dropShadow_92_2"/>
<feBlend mode="normal" in="SourceGraphic" in2="effect1_dropShadow_92_2" result="shape"/>
</filter>
<clipPath id="clip0_92_2">
<rect width="150" height="150" fill="white"/>
</clipPath>
</defs>
</svg>
