<svg width="150" height="150" viewBox="0 0 150 150" fill="none" xmlns="http://www.w3.org/2000/svg">
<rect width="150" height="150" fill="white"/>
<ellipse cx="75" cy="74.5294" rx="75" ry="73.5294" fill="#FDE9EA"/>
<mask id="mask0_93_22" style="mask-type:luminance" maskUnits="userSpaceOnUse" x="30" y="30" width="90" height="90">
<path d="M30 30H120V120H30V30Z" fill="white"/>
</mask>
<g mask="url(#mask0_93_22)">
<path d="M65.2554 37.3526V37.3283H65.2483C65.2483 37.3283 65.2483 37.3364 65.2554 37.3526ZM72.8104 97.3269C73.0133 97.3796 73.2446 97.4201 73.4994 97.408C73.4168 96.9216 73.1903 96.3582 72.8812 95.884C72.5391 95.3449 72.1309 94.9275 71.7652 94.7329C71.3924 94.5424 71.1423 94.6194 71.003 94.8991C70.9653 94.9639 70.9417 95.0531 70.9181 95.1261C71.3074 95.657 71.6849 96.1718 72.053 96.5933C72.3102 96.9054 72.5768 97.1607 72.8104 97.3269ZM74.3818 55.9768C74.4031 55.4863 74.2686 54.6717 74.0751 53.8894C73.8958 53.0707 73.6221 52.3289 73.4144 51.1738C73.3319 50.7077 73.2493 50.2416 73.1667 49.7593C73.1101 49.2121 73.0558 48.6608 72.9968 48.1056C72.9189 47.0477 72.867 46.0385 72.775 45.086L72.7467 44.709V44.6685L72.7137 44.4861L72.6429 44.1011C72.6193 43.9673 72.5981 43.9754 72.5768 43.9025C72.5579 43.8457 72.5438 43.7849 72.5249 43.7282L72.4235 43.5134C72.3692 43.3512 72.2724 43.2296 72.1899 43.0918C71.8241 42.5325 71.3357 42.1069 70.7671 41.6084C70.2268 41.1098 69.6912 40.5627 69.2004 40.0844C68.2047 39.1116 67.2255 38.22 66.3124 37.8349C65.4182 37.462 65.279 37.6282 64.4602 38.1592C64.2691 38.2808 64.0662 38.5118 63.8751 38.6658C63.1106 39.4359 62.4452 40.3965 61.8577 41.3125C60.678 43.1445 59.7719 44.8225 59.0806 45.8723C58.3987 46.9423 57.9575 47.4287 57.8938 47.303C57.8206 47.1693 58.1156 46.4722 58.6606 45.2157C59.2151 43.9673 59.9937 42.1393 61.1333 40.0358C61.7067 38.9901 62.3791 37.8876 63.2427 36.8986C63.4739 36.6717 63.6745 36.4244 63.9482 36.2137C64.0827 36.1083 64.2101 35.9988 64.3493 35.9016C64.4767 35.8124 64.5947 35.7516 64.715 35.6746L64.8991 35.5733L64.9439 35.5489L64.9887 35.5327L65.0501 35.5084L65.1751 35.48C65.345 35.4071 65.5078 35.403 65.6706 35.3909C65.9915 35.3828 66.303 35.4598 66.6003 35.557C67.7989 36.0069 68.8512 36.9432 69.8988 37.916C70.399 38.3942 70.8686 38.8604 71.364 39.3062C71.3711 39.0833 71.3711 38.8482 71.3617 38.6253C70.8379 36.8905 69.3821 35.9502 68.4123 35.2004C67.4261 34.4465 66.4091 33.7818 65.4418 32.959C63.1153 32.6793 61.19 36.7568 59.602 39.1927C58.0424 41.5841 56.2728 43.0027 54.5386 44.9401C52.0376 47.7246 51.7568 51.8709 50.2963 55.9119C49.0788 59.2639 47.7622 62.782 46.1884 65.684C44.2961 69.1657 42.0428 72.2988 40.5705 76.3884C39.1005 80.4577 38.0057 84.8108 36.918 89.2166C35.776 93.8696 34.7237 98.4334 33.8625 103.269C33.2891 106.475 32.9045 109.916 31.6705 112.583C31.6682 112.603 31.6564 112.607 31.6493 112.628C31.5431 113.175 31.5761 113.604 31.9301 113.783C32.8833 114.253 33.8554 114.52 34.8346 114.845C37.6612 115.781 40.377 117.135 43.2626 116.879C43.4207 112.782 44.256 109.251 45.1549 105.393C45.8769 102.304 46.4432 98.9401 47.3233 95.9245C47.236 95.9651 47.1416 95.9975 47.0614 96.0502C46.9033 96.1029 46.7759 96.265 46.6367 96.3623L46.4291 96.5244L46.3819 96.5609C46.3701 96.573 46.2733 96.6946 46.2733 96.6946C45.9808 97.0756 45.8038 97.3553 45.5891 97.7403C45.1738 98.4902 44.827 99.3048 44.5273 100.107C43.9375 101.721 43.5057 103.236 43.1447 104.473C42.4439 106.965 41.9885 108.331 41.88 108.238C41.7833 108.153 42.0357 106.694 42.5619 104.047C42.8379 102.738 43.1871 101.117 43.744 99.313C44.0248 98.4172 44.3692 97.4688 44.8152 96.5487C45.0346 96.0988 45.3437 95.576 45.5891 95.2314L45.6858 95.0815L45.7094 95.0531C45.7094 95.0409 45.7826 94.9599 45.7826 94.9599L45.7944 94.9518L45.8557 94.891L46.1153 94.6437C46.2946 94.4938 46.4668 94.2871 46.6603 94.1857C47.4224 93.6629 48.2435 93.5048 49.0552 93.3873C49.4516 93.3548 49.8574 93.3224 50.2679 93.2778C50.4756 93.2738 50.6573 93.2373 50.8413 93.213C51.0277 93.1887 51.2188 93.1643 51.4359 93.0873L51.7473 92.9982L51.8795 92.9657C51.8818 92.9576 51.9031 92.9455 51.9031 92.9455L51.9408 92.9293L52.014 92.8968C52.2216 92.8036 52.4292 92.7144 52.6369 92.6131C53.0521 92.4307 53.4721 92.2402 53.9039 92.0173C54.7651 91.5917 55.6546 91.0972 56.6079 90.6879C56.8509 90.5865 57.0916 90.4893 57.3346 90.3879C57.5729 90.2907 57.8348 90.242 58.092 90.1569C58.3468 90.088 58.5993 90.0029 58.8588 89.9583C59.1254 89.9299 59.3873 89.9137 59.654 89.8894C60.1872 89.7962 60.7464 89.9137 61.3056 89.9988C61.8955 90.0475 62.3579 90.2947 62.877 90.473L63.2569 90.6149L63.4504 90.6879L63.6745 90.7851C63.9175 90.8865 64.1558 91 64.4107 91.0972C64.9227 91.2796 65.4418 91.458 65.9632 91.6525C67.0226 92.0457 68.1457 92.4834 69.2665 93.3548L69.6393 93.6629L69.8209 93.8128L69.913 93.8939L69.9672 93.9547L70.0805 94.0803C70.2221 94.2344 70.3518 94.3884 70.4722 94.5424C70.4863 94.4857 70.4958 94.437 70.517 94.3762C70.6161 94.0074 70.8497 93.6548 71.1257 93.517C71.3947 93.3629 71.6802 93.3873 71.9445 93.4805C72.4801 93.6831 72.9897 94.1533 73.4309 94.8383C73.6386 95.1666 73.8132 95.5516 73.9571 95.9529C73.9571 95.807 73.9571 95.6449 73.943 95.4787C73.9052 94.8504 73.7495 94.1452 73.5536 93.4683C73.1478 92.0984 72.5768 90.8216 71.9728 89.6584C71.364 88.5032 70.7105 87.4291 70.0427 86.5577C69.9602 86.4483 69.8776 86.351 69.7974 86.2497C69.7053 86.1483 69.6699 86.0997 69.5661 85.9984C69.4104 85.8444 69.1886 85.6863 69.0069 85.5242C68.6153 85.2121 68.233 84.9 67.8626 84.5919C66.3407 83.4652 64.7953 82.4114 63.5306 81.2805C62.8322 80.7131 62.1998 79.9349 61.7067 79.0716C61.2136 78.1961 60.8431 77.2598 60.5482 76.3519C60.0928 74.9455 59.8144 73.6282 59.602 72.4771C59.5997 73.2188 59.6068 73.8592 59.6304 74.3456C59.661 75.2008 59.6846 75.6872 59.5808 75.7642C59.4959 75.8291 59.2835 75.4318 59.0759 74.5726C58.8517 73.7295 58.6866 72.4123 58.5993 70.8113C58.5544 70.0047 58.5308 69.1252 58.5214 68.201C58.5167 67.97 58.5167 67.7349 58.5096 67.4998C58.5096 67.2567 58.5096 67.0135 58.5096 66.7541C58.5167 66.2312 58.5167 65.6921 58.5639 65.145C58.5827 64.8248 58.6134 64.5046 58.6441 64.1763C58.1297 65.8745 57.8041 67.0945 57.6531 67.0378C57.4242 66.9608 57.639 64.2006 58.6299 61.3188C58.9768 60.3136 59.3708 59.43 59.7601 58.7734C59.805 58.6356 59.8474 58.4938 59.8923 58.3641C60.0763 57.8047 60.2981 57.2697 60.4939 56.7509C60.5977 56.5158 60.6968 56.2848 60.7983 56.0619L60.954 55.7174L61.0295 55.5512L61.0814 55.4377L61.1333 55.3526C61.3787 54.923 61.6218 54.4893 61.8577 54.0718C62.0913 53.6503 62.3485 53.3503 62.5868 52.9937C63.0776 52.2925 63.4739 51.7737 63.8892 51.2265C64.2809 50.6023 64.6702 50.0349 64.9887 49.512C65.1822 49.2121 65.3851 48.9121 65.6942 48.7135C65.7296 48.6933 65.7674 48.6811 65.8051 48.6608C65.6258 48.1218 65.5196 47.5543 65.5078 47.0234C65.4866 46.2695 65.614 45.7264 65.7697 45.3819C65.916 45.0981 66.0458 45.0333 66.1378 45.086C66.2393 45.1387 66.2747 45.394 66.3124 45.698C66.3549 45.9452 66.4091 46.3181 66.52 46.6626C66.7277 47.3355 67.242 48.1623 67.9829 48.6608C68.7261 49.1634 69.3868 49.1351 69.8021 48.823C70.2433 48.5149 70.5264 47.9272 70.7246 48.065C70.8143 48.1218 70.8733 48.3407 70.8638 48.7338C70.8379 49.1067 70.7388 49.6701 70.4486 50.2173C70.3235 50.4604 70.1489 50.6915 69.9507 50.882C69.9578 50.9671 69.9578 51.0481 69.9672 51.1414C70.3141 52.0128 70.7246 52.9774 71.2154 53.8894C71.8194 55.0202 72.4565 55.8065 73.0298 56.2929C73.3602 56.4753 73.7188 56.6091 73.9949 56.5766C74.0751 56.5645 74.1364 56.5402 74.1883 56.5158C74.2096 56.4956 74.2332 56.4834 74.2473 56.4591C74.2544 56.451 74.2615 56.4429 74.2686 56.4348C74.3063 56.3699 74.3535 56.2848 74.3818 56.2321C74.3653 56.2159 74.3535 56.2281 74.3535 56.2443C74.3582 56.1835 74.3818 56.1024 74.3818 55.9768ZM79.2046 95.1261C79.181 95.0531 79.1527 94.9639 79.1197 94.8991C78.9781 94.6194 78.7303 94.5424 78.3505 94.7329C77.9895 94.9275 77.5836 95.3449 77.2344 95.884C76.9277 96.3582 76.7059 96.9216 76.6233 97.408C76.8781 97.4201 77.1094 97.3796 77.3076 97.3269C77.5459 97.1607 77.8125 96.9054 78.065 96.5933C78.4378 96.1718 78.8082 95.657 79.2046 95.1261ZM90.4475 69.6764C90.4286 69.2224 90.4098 68.7563 90.3862 68.2578C90.3744 68.0268 90.3649 67.7957 90.3555 67.5525C90.3437 67.3215 90.3319 67.0905 90.3177 66.8473C90.2965 66.3974 90.2776 65.9232 90.2163 65.4571C90.0322 63.5642 89.6193 61.562 88.961 59.6327C88.803 59.1463 88.6236 58.7126 88.4561 58.2627C88.3594 58.0196 88.2603 57.8007 88.1635 57.5615L88.0149 57.2251L87.9417 57.0509C87.937 57.0387 87.9276 57.0144 87.9252 56.9982L87.8828 56.9333C87.6822 56.5483 87.4817 56.1673 87.2858 55.8065C87.0971 55.4255 86.8493 55.0932 86.6488 54.7487C86.1957 54.0272 85.7639 53.3382 85.3628 52.6856C85.0066 51.9966 84.6739 51.3805 84.3813 50.7523C84.2633 50.4848 84.1383 50.2699 84.0651 50.1929C83.9967 50.1159 83.9967 50.0754 83.8693 50.1362C83.6239 50.274 83.303 50.6266 83.0435 50.7766C82.9703 50.8171 82.9019 50.8577 82.8358 50.882C82.7839 50.9225 82.7297 50.9752 82.6707 51.0157C82.2743 51.2792 81.8543 51.421 81.4485 51.421C81.1842 52.6978 80.7265 54.2137 79.9761 55.612C79.5137 56.4631 78.9828 57.1643 78.4378 57.6345C78.0461 57.9709 77.645 58.1736 77.284 58.2749C76.9371 58.4857 76.5502 58.6599 76.083 58.6721C75.7786 58.6518 75.4294 58.587 75.059 58.0966C74.6862 58.587 74.3441 58.6518 74.0397 58.6721C73.5725 58.6599 73.1856 58.4857 72.8364 58.2749C72.4706 58.1736 72.0766 57.9709 71.6802 57.6345C71.1399 57.1643 70.6043 56.4631 70.1442 55.612C69.3962 54.2137 68.9361 52.6978 68.6672 51.421C68.2637 51.421 67.8484 51.2792 67.4473 51.0157C67.3954 50.9752 67.3388 50.9225 67.2869 50.882C67.2184 50.8495 67.1477 50.8171 67.0745 50.7766C66.8173 50.6266 66.4988 50.274 66.2534 50.1362C66.1236 50.0754 66.1236 50.1159 66.0576 50.1929C65.9844 50.2699 65.857 50.4848 65.7414 50.7523C65.4418 51.3805 65.1138 51.9966 64.7528 52.6856C64.3517 53.3382 63.927 54.0272 63.4739 54.7487C63.271 55.0932 63.0186 55.4255 62.8322 55.8065C62.6387 56.1673 62.4405 56.5483 62.2376 56.9333L62.2022 56.9901C62.2022 56.9901 62.1857 57.0387 62.181 57.0509L62.1031 57.2251L61.9568 57.5615C61.8601 57.8007 61.761 58.0196 61.6595 58.2627C61.4991 58.7126 61.3174 59.1463 61.1546 59.6327C60.5057 61.562 60.0905 63.5642 59.8993 65.4571C59.8451 65.9232 59.8238 66.3974 59.8002 66.8473C59.7884 67.0905 59.7766 67.3215 59.7648 67.5525C59.7578 67.7957 59.7413 68.0268 59.7342 68.2578C59.7129 68.7563 59.6917 69.2224 59.6752 69.6764C59.7814 70.1222 59.8993 70.6086 60.0315 71.1598C60.3453 72.4123 60.7228 73.9768 61.3245 75.5372C61.6241 76.3235 61.9875 77.0936 62.4263 77.7827C62.8699 78.4717 63.3914 79.0432 64.0095 79.485C65.345 80.5185 66.7701 81.3656 68.384 82.4519C68.7851 82.7356 69.1886 83.0517 69.5968 83.3598C69.8115 83.53 69.9979 83.6476 70.2362 83.8583C70.3282 83.9394 70.4816 84.0934 70.5783 84.2069C70.6869 84.3204 70.786 84.446 70.8874 84.5636C71.6755 85.5444 72.3904 86.659 73.0794 87.9115C73.7589 89.172 74.4101 90.5541 74.9316 92.2402C74.9764 92.3821 75.0189 92.532 75.059 92.682C75.1015 92.532 75.1392 92.3821 75.184 92.2402C75.7055 90.5541 76.3638 89.172 77.041 87.9115C77.7323 86.659 78.4425 85.5444 79.2329 84.5636C79.3367 84.446 79.4358 84.3204 79.5444 84.2069C79.6411 84.0934 79.7921 83.9394 79.8865 83.8583C80.1177 83.6476 80.3041 83.53 80.5188 83.3598C80.9341 83.0517 81.3376 82.7356 81.7363 82.4519C83.3502 81.3656 84.7753 80.5185 86.1061 79.485C86.7313 79.0432 87.2457 78.4717 87.6964 77.7827C88.1352 77.0936 88.4915 76.3235 88.7959 75.5372C89.3952 73.9768 89.7703 72.4123 90.0889 71.1598C90.221 70.6086 90.3366 70.1222 90.4475 69.6764ZM115.718 114.711C115.968 114.638 118.688 113.556 118.7 113.604C118.58 113.118 118.436 112.652 118.287 112.186C117.19 109.584 116.786 106.321 116.258 103.269C115.418 98.4253 114.342 93.8696 113.198 89.2166C112.129 84.8716 111.109 80.3037 109.552 76.3884C107.945 72.3393 105.775 69.3562 103.934 65.684C102.453 62.7171 100.888 59.3774 99.8241 55.9119C98.5995 51.9196 98.0026 47.3882 95.5817 44.9401C93.8121 43.1445 92.0496 41.6003 90.5207 39.1927C88.9563 36.7325 86.9862 32.6793 84.6786 32.959C83.6121 33.8669 82.4937 34.5519 81.4201 35.4314C80.5188 36.165 79.2423 37.004 78.7563 38.6253C78.7516 38.8482 78.7516 39.0833 78.7563 39.3062C79.2541 38.8604 79.7213 38.3942 80.2215 37.916C81.2691 36.9432 82.3238 36.0069 83.5154 35.557C83.8197 35.4598 84.1288 35.3828 84.4521 35.3909C84.6149 35.403 84.7753 35.4071 84.9452 35.48L85.0655 35.5084L85.1269 35.5327L85.1623 35.5449L85.1764 35.5489L85.2236 35.5733L85.4077 35.6746C85.528 35.7516 85.646 35.8124 85.771 35.9016C85.9055 35.9988 86.04 36.1083 86.1745 36.2137C86.4458 36.4244 86.6488 36.6717 86.88 36.8986C87.7436 37.8876 88.416 38.9901 88.9894 40.0358C90.1266 42.1393 90.9053 43.9673 91.4621 45.2157C92.0001 46.4722 92.3021 47.1693 92.2289 47.303C92.1605 47.4287 91.7216 46.9423 91.035 45.8804C90.3508 44.8225 89.4424 43.1567 88.2674 41.3125C87.6728 40.4046 87.005 39.4481 86.2429 38.682C86.0542 38.5158 85.8465 38.301 85.6625 38.1835C85.016 37.7214 84.5158 37.539 83.8103 37.8268C82.8925 38.22 81.918 39.0995 80.9223 40.0844C80.4315 40.5546 79.8959 41.1098 79.3532 41.6084C78.787 42.0988 78.2915 42.5325 77.9305 43.0918C77.8503 43.2296 77.7535 43.3512 77.6945 43.5134L77.5931 43.7282C77.5766 43.7849 77.5624 43.8457 77.5459 43.9025C77.5246 43.9754 77.4963 43.9673 77.4775 44.1011L77.4067 44.4861L77.376 44.6685L77.3689 44.709L77.343 45.086C77.2557 46.0385 77.2038 47.0477 77.1235 48.1056C77.0645 48.6608 77.0103 49.2121 76.9537 49.7593C76.8758 50.2416 76.7908 50.7077 76.7083 51.1738C76.4983 52.3289 76.2246 53.0707 76.0429 53.8894C75.8541 54.6717 75.7173 55.4863 75.7409 55.9768C75.7409 56.0903 75.7574 56.1754 75.7621 56.2321C75.7621 56.2281 75.755 56.2159 75.7409 56.2321C75.7621 56.2848 75.8164 56.3699 75.8541 56.4348C75.8589 56.4429 75.8659 56.451 75.8683 56.4591C75.8824 56.4834 75.9131 56.4956 75.932 56.5158C75.9792 56.5402 76.0476 56.5645 76.1255 56.5766C76.4063 56.6091 76.7578 56.4753 77.0905 56.2848C77.6662 55.8065 78.3033 55.0202 78.9002 53.8894C79.3934 52.9774 79.8039 52.0128 80.1555 51.1414C80.1649 51.0481 80.1602 50.9671 80.1649 50.882C79.9738 50.6915 79.7992 50.4604 79.6718 50.2173C79.3839 49.6701 79.2825 49.1067 79.2565 48.7338C79.2471 48.3407 79.3013 48.1218 79.3981 48.065C79.5916 47.9272 79.877 48.5149 80.3159 48.823C80.7359 49.1351 81.3966 49.1634 82.1327 48.6608C82.8807 48.1623 83.395 47.3355 83.6027 46.6626C83.7088 46.3181 83.7655 45.9452 83.8103 45.698C83.8481 45.394 83.8834 45.1387 83.9825 45.086C84.0769 45.0333 84.2043 45.0981 84.3506 45.3819C84.5063 45.7264 84.6361 46.2695 84.6149 47.0234C84.6031 47.5543 84.4946 48.1218 84.3152 48.6608C84.3506 48.6811 84.3955 48.6933 84.4285 48.7135C84.7376 48.9121 84.9334 49.2121 85.1269 49.512C85.4525 50.0349 85.8418 50.6023 86.2335 51.2265C86.6488 51.7737 87.0428 52.2925 87.5359 52.9937C87.7719 53.3503 88.0243 53.6503 88.2603 54.0718C88.5009 54.4893 88.744 54.923 88.9894 55.3526L89.0389 55.4377L89.0908 55.5512L89.1687 55.7174L89.3173 56.0619C89.4188 56.2848 89.525 56.5158 89.6264 56.7509C89.8223 57.2697 90.0464 57.8047 90.2304 58.3641C90.2729 58.4938 90.3177 58.6356 90.3626 58.7734C90.7519 59.43 91.1436 60.3136 91.4904 61.3188C92.4814 64.2006 92.6961 66.9608 92.4696 67.0378C92.3162 67.0945 91.9906 65.8745 91.4763 64.1763C91.5093 64.5046 91.5376 64.8248 91.5588 65.145C91.606 65.6921 91.606 66.2312 91.606 66.7541C91.606 67.0135 91.6107 67.2567 91.6107 67.4998C91.606 67.7349 91.606 67.97 91.5989 68.201C91.5919 69.1252 91.5683 70.0047 91.5234 70.8113C91.4361 72.4123 91.2686 73.7295 91.0468 74.5726C90.8321 75.4318 90.6221 75.8291 90.5395 75.7642C90.4381 75.6872 90.4617 75.2008 90.49 74.3456C90.5136 73.8592 90.5207 73.2188 90.5136 72.4771C90.3059 73.6282 90.0275 74.9455 89.5745 76.3519C89.2796 77.2598 88.9068 78.1961 88.416 79.0716C87.9252 79.9349 87.2905 80.7131 86.5898 81.2805C85.3251 82.4114 83.782 83.4652 82.2601 84.5919C81.885 84.9 81.5051 85.2121 81.1158 85.5242C80.9341 85.6863 80.7123 85.8444 80.5566 85.9984C80.4504 86.0997 80.4127 86.1483 80.3253 86.2497C80.2428 86.351 80.1602 86.4483 80.08 86.5577C79.4122 87.4291 78.7563 88.5032 78.1475 89.6584C77.5459 90.8216 76.9725 92.0984 76.5667 93.4683C76.3661 94.1452 76.2175 94.8504 76.1797 95.4787C76.1632 95.6449 76.1585 95.807 76.1632 95.9529C76.3095 95.5516 76.4841 95.1666 76.6918 94.8383C77.133 94.1533 77.6355 93.6831 78.1711 93.4805C78.4425 93.3873 78.728 93.3629 78.997 93.517C79.2707 93.6548 79.5066 94.0074 79.6057 94.3762C79.6246 94.437 79.634 94.4857 79.6482 94.5424C79.7685 94.3884 79.9006 94.2344 80.0422 94.0803L80.1531 93.9547L80.2074 93.8939L80.3018 93.8128L80.4834 93.6629L80.8539 93.3548C81.9746 92.4834 83.1025 92.0457 84.1595 91.6525C84.6786 91.458 85.1953 91.2796 85.7073 91.0972C85.9645 91 86.2005 90.8865 86.4458 90.7851L86.6723 90.6879L86.8658 90.6149L87.2457 90.473C87.7577 90.2947 88.2249 90.0475 88.8171 89.9988C89.3763 89.9137 89.9355 89.7962 90.4617 89.8894C90.733 89.9137 90.9973 89.9299 91.2568 89.9583C91.5187 90.0029 91.7759 90.088 92.0307 90.1569C92.2879 90.242 92.5427 90.2907 92.7881 90.3879C93.0311 90.4893 93.2695 90.5865 93.5125 90.6879C94.4681 91.0972 95.3576 91.5917 96.2164 92.0173C96.6435 92.2402 97.0682 92.4307 97.4835 92.6131C97.6911 92.7144 97.8988 92.8036 98.1017 92.8968L98.1795 92.9293L98.2196 92.9455L98.2385 92.9576C98.2385 92.9657 98.373 92.9982 98.373 92.9982L98.6868 93.0873C98.9039 93.1643 99.0927 93.1887 99.2743 93.213C99.4654 93.2373 99.6471 93.2738 99.8548 93.2778C100.263 93.3224 100.669 93.3548 101.063 93.3873C101.879 93.5048 102.698 93.6629 103.462 94.1857C103.656 94.2871 103.823 94.4938 104 94.6437L104.267 94.891L104.331 94.9518L104.335 94.9599C104.335 94.9599 104.413 95.0531 104.401 95.0409C104.413 95.0531 104.437 95.0815 104.437 95.0815L104.534 95.2314C104.779 95.576 105.086 96.0988 105.3 96.5487C105.753 97.4688 106.096 98.4172 106.376 99.313C106.933 101.117 107.285 102.738 107.558 104.047C108.085 106.694 108.337 108.153 108.24 108.238C108.132 108.331 107.676 106.965 106.976 104.473C106.615 103.236 106.183 101.721 105.591 100.107C105.298 99.3048 104.949 98.4902 104.534 97.7403C104.317 97.3553 104.142 97.0756 103.849 96.6946L103.753 96.573C103.741 96.5609 103.687 96.5244 103.687 96.5244L103.486 96.3623C103.34 96.265 103.219 96.1029 103.061 96.0502C102.979 95.9975 102.887 95.9651 102.802 95.9245C103.672 98.9401 104.243 102.304 104.963 105.393C105.86 109.251 106.695 112.782 106.853 116.879C109.892 117.155 112.738 115.623 115.718 114.711ZM119.634 111.606C120.205 113.771 120.302 115.517 118.117 116.417C114.274 117.986 110.123 120.008 106.169 119.283C105.775 119.218 105.447 118.772 105.447 118.038C105.416 113.665 104.496 110.034 103.569 106.065C102.776 102.653 102.134 98.6847 101.035 95.5557C101.025 95.5557 101.013 95.5557 101.004 95.5516C100.612 95.5395 100.211 95.5314 99.8076 95.5314C99.4065 95.5152 98.885 95.4908 98.4792 95.3895L98.1654 95.3125L98.0049 95.2841L97.7997 95.199C97.5873 95.1179 97.3702 95.0328 97.1532 94.9396C96.7167 94.7734 96.2731 94.6032 95.8389 94.3924C94.9494 94.0033 94.0646 93.5453 93.1586 93.2008C92.9368 93.1116 92.7126 93.0306 92.4837 92.9414C92.2572 92.8563 92.0307 92.8239 91.7995 92.7631C91.573 92.7104 91.3441 92.6374 91.1129 92.5969C90.8864 92.5888 90.6552 92.5847 90.4239 92.5645C89.9497 92.4956 89.5084 92.6131 89.0531 92.682C88.6189 92.6982 88.0857 92.9698 87.5902 93.1562L87.208 93.3021L87.0145 93.3792L86.8587 93.444C86.5992 93.5615 86.3302 93.6953 86.0683 93.7966C85.5492 93.9871 85.0278 94.1857 84.4946 94.3884C83.4611 94.7694 82.4512 95.1909 81.5594 95.884L81.1889 96.192L81.0238 96.3217C81.019 96.3298 81.0072 96.3461 81.0072 96.3461L80.9718 96.3825L80.9105 96.4474C80.7288 96.65 80.5235 96.9094 80.3112 97.1932C79.8888 97.7606 79.45 98.3564 78.9663 98.9157C78.4755 99.4629 77.9541 100.038 77.1967 100.261C77.0174 100.326 76.7956 100.31 76.5879 100.286C76.477 100.269 76.3284 100.197 76.201 100.128C76.1349 100.083 76.0736 100.043 76.0099 100.002C75.965 99.9696 75.9485 99.9412 75.9178 99.9169L75.7456 99.7466C75.6819 99.6777 75.6512 99.6453 75.6441 99.6372C75.6489 99.6372 75.6607 99.6453 75.6441 99.6291H75.6371L75.6276 99.6048L75.604 99.5683L75.5498 99.4953L75.453 99.3494C75.3185 99.1589 75.2053 98.8914 75.0873 98.6604C75.0779 98.632 75.0661 98.6077 75.059 98.5834C75.0496 98.6077 75.0425 98.632 75.0354 98.6604C74.9174 98.8914 74.8042 99.1589 74.6697 99.3494L74.5659 99.4953L74.5163 99.5683L74.4927 99.6048L74.4786 99.6291C74.4786 99.6291 74.462 99.6453 74.3724 99.7466L74.2025 99.9169C74.1718 99.9412 74.1577 99.9696 74.1128 100.002C74.0491 100.043 73.9878 100.083 73.9194 100.128C73.7943 100.197 73.6457 100.269 73.5324 100.286C73.3248 100.31 73.103 100.326 72.9237 100.261C72.1663 100.038 71.6401 99.4629 71.1541 98.9157C70.6656 98.3564 70.2339 97.7606 69.8044 97.1932C69.5968 96.9094 69.3939 96.65 69.2075 96.4474L69.1438 96.3825L69.1155 96.3461L69.1037 96.3298C69.0966 96.3217 68.9338 96.192 68.9338 96.192L68.561 95.884C67.6691 95.1909 66.6592 94.7694 65.6211 94.3884C65.0949 94.1857 64.5735 93.9871 64.052 93.7966C63.7925 93.6953 63.5235 93.5615 63.2569 93.444L63.1012 93.3792L62.9148 93.3021L62.5302 93.1562C62.0299 92.9698 61.5038 92.6982 61.072 92.682C60.6143 92.6131 60.173 92.4956 59.6988 92.5645C59.4676 92.5847 59.2363 92.5888 59.0075 92.5969C58.7762 92.6374 58.5474 92.7104 58.3161 92.7631C58.092 92.8239 57.8631 92.8563 57.639 92.9414C57.4101 93.0306 57.1859 93.1116 56.9618 93.2008C56.0581 93.5453 55.1662 94.0033 54.2814 94.3924C53.8496 94.6032 53.4037 94.7734 52.9648 94.9396C52.7478 95.0328 52.5354 95.1179 52.3183 95.199L52.1178 95.2841L51.955 95.3125L51.6364 95.3895C51.2353 95.4908 50.7115 95.5152 50.3151 95.5314C49.9046 95.5314 49.5035 95.5395 49.1142 95.5516C49.1024 95.5557 49.0976 95.5557 49.0882 95.5557C47.984 98.6847 47.3469 102.653 46.5541 106.065C45.6268 110.034 44.7043 113.665 44.676 118.038C44.6736 118.772 44.348 119.218 43.9516 119.283C41.2028 119.781 38.5885 118.817 35.9152 117.795C34.483 117.252 32.9187 117.045 31.5431 116.182C29.7145 115.035 29.9245 113.349 30.4979 111.363C30.5238 111.181 30.571 110.994 30.6512 110.824C30.6654 110.787 30.6772 110.759 30.6913 110.723C30.9249 109.973 31.1798 109.186 31.3827 108.372C31.4464 108.104 31.5431 107.934 31.6493 107.833C32.5695 104.132 32.888 99.5197 33.669 96.0299C34.6789 91.535 35.8232 87.0563 36.9982 82.6748C38.1567 78.3582 39.4521 74.1794 41.3444 70.6694C43.2485 67.1432 45.3343 63.9858 46.934 60.0177C48.5007 56.1308 49.4988 52.1263 50.8413 48.0731C52.014 44.5348 53.6986 42.9054 55.716 40.9356C58.7243 37.993 61.7185 29.7773 65.5526 30.4744C65.6565 30.4906 65.7461 30.5433 65.8263 30.6122C65.916 30.6203 66.008 30.6608 66.1 30.75C68.1103 32.4848 71.5575 33.6237 72.6358 37.4296C72.6594 37.5147 72.6783 37.5958 72.6877 37.6809C72.7396 37.8511 72.7821 38.0538 72.7962 38.2605C72.8505 39.0508 72.7962 39.8412 72.7325 40.6235C72.8741 40.7937 73.0204 40.9842 73.162 41.199C73.3012 41.426 73.4451 41.6449 73.5654 41.9326L73.7495 42.3379C73.8085 42.5163 73.8604 42.6865 73.9146 42.873C73.9571 43.031 74.0303 43.258 74.0444 43.3756L74.1128 43.7565L74.1412 43.947L74.1506 43.9876L74.1577 44.0119L74.1813 44.1821L74.186 44.2835L74.219 44.6928C74.311 45.7912 74.3582 46.8167 74.4196 47.7732C74.455 48.215 74.4927 48.6446 74.5281 49.0783C74.6036 49.5525 74.6838 50.0268 74.7546 50.4888C74.8183 50.8982 74.9316 51.3805 75.059 51.879C75.184 51.3805 75.3044 50.8982 75.3634 50.4888C75.4389 50.0268 75.5167 49.5525 75.5946 49.0783C75.6276 48.6446 75.6607 48.215 75.7008 47.7732C75.7574 46.8167 75.8069 45.7912 75.9037 44.6928L75.932 44.2835L75.9414 44.1821L75.965 44.0119L75.9698 43.9876L75.9768 43.947L76.0099 43.7565L76.0736 43.3756C76.0901 43.258 76.1585 43.031 76.2081 42.873C76.2552 42.6865 76.3142 42.5163 76.3661 42.3379L76.5573 41.9326C76.6705 41.6449 76.8168 41.426 76.9607 41.199C77.0999 40.9842 77.2462 40.7937 77.3902 40.6235C77.3265 39.8412 77.2698 39.0508 77.3217 38.2605C77.343 38.0538 77.376 37.8511 77.4279 37.6809C77.4421 37.5958 77.4633 37.5147 77.4798 37.4296C78.5628 33.6237 82.0053 32.4848 84.0179 30.75C84.1147 30.6608 84.2043 30.6203 84.2987 30.6122C84.3742 30.5433 84.4615 30.4906 84.563 30.4744C86.309 30.1583 87.8309 31.8606 89.1191 33.721C91.0846 36.546 92.7881 39.3832 95.0461 41.5435C97.0682 43.4769 98.6113 45.4386 99.5905 49.1553C100.619 53.0545 101.728 56.5239 103.184 60.0177C104.982 64.3262 107.341 67.6133 109.29 71.6827C111.067 75.4035 112.358 79.5863 113.467 83.988C114.573 88.3776 115.857 92.7752 116.711 97.3269C117.294 100.411 117.664 104.521 118.48 107.841C118.584 107.946 118.676 108.112 118.74 108.372C118.919 109.097 119.127 109.802 119.323 110.467C119.372 110.593 119.42 110.706 119.471 110.824C119.582 111.071 119.632 111.339 119.634 111.606Z" fill="black"/>
</g>
</svg>
