<svg width="150" height="150" viewBox="0 0 150 150" fill="none" xmlns="http://www.w3.org/2000/svg">
<g clip-path="url(#clip0_93_23)">
<rect width="150" height="150" fill="white"/>
<circle cx="75" cy="75" r="75" fill="#FDE9EA"/>
<path d="M74.5971 94.7017H71.3181C69.8985 94.7017 68.7441 95.8923 68.7441 97.3565C68.7441 98.8208 69.8985 100.014 71.3181 100.014H74.5971C76.0144 100.014 77.1687 98.8208 77.1687 97.3565C77.1687 95.8923 76.0144 94.7017 74.5971 94.7017ZM74.5971 98.5126H71.3181C70.6991 98.5126 70.1972 97.995 70.1972 97.3565C70.1972 96.7205 70.6991 96.2029 71.3181 96.2029H74.5971C75.2137 96.2029 75.7156 96.7205 75.7156 97.3565C75.7156 97.995 75.2137 98.5126 74.5971 98.5126Z" fill="black"/>
<path d="M74.5971 86.9424H71.3181C69.8985 86.9424 68.7441 88.1355 68.7441 89.5997C68.7441 91.064 69.8985 92.2546 71.3181 92.2546H74.5971C76.0144 92.2546 77.1687 91.064 77.1687 89.5997C77.1687 88.1355 76.0144 86.9424 74.5971 86.9424ZM74.5971 90.7558H71.3181C70.6991 90.7558 70.1972 90.2357 70.1972 89.5997C70.1972 88.9637 70.6991 88.4436 71.3181 88.4436H74.5971C75.2137 88.4436 75.7156 88.9637 75.7156 89.5997C75.7156 90.2357 75.2137 90.7558 74.5971 90.7558Z" fill="black"/>
<path d="M53.1814 94.7017C51.7618 94.7017 50.6074 95.8923 50.6074 97.3565V100.746C50.6074 102.21 51.7618 103.401 53.1814 103.401C54.5986 103.401 55.753 102.21 55.753 100.746V97.3565C55.753 95.8923 54.5986 94.7017 53.1814 94.7017ZM54.2999 100.746C54.2999 101.382 53.798 101.9 53.1814 101.9C52.5624 101.9 52.0605 101.382 52.0605 100.746V97.3565C52.0605 96.7205 52.5624 96.2029 53.1814 96.2029C53.798 96.2029 54.2999 96.7205 54.2999 97.3565V100.746Z" fill="black"/>
<path d="M64.2718 91.9439C64.2718 90.4797 63.1198 89.2891 61.7002 89.2891H58.4212C57.004 89.2891 55.8496 90.4797 55.8496 91.9439C55.8496 93.4082 57.004 94.6013 58.4212 94.6013H61.7002C63.1198 94.6013 64.2718 93.4082 64.2718 91.9439ZM57.3027 91.9439C57.3027 91.3079 57.8046 90.7878 58.4212 90.7878H61.7002C62.3192 90.7878 62.8211 91.3079 62.8211 91.9439C62.8211 92.5824 62.3192 93.1 61.7002 93.1H58.4212C57.8046 93.1 57.3027 92.5824 57.3027 91.9439Z" fill="black"/>
<path d="M53.1814 80.4863C51.7618 80.4863 50.6074 81.6794 50.6074 83.1437V86.5306C50.6074 87.9949 51.7618 89.1855 53.1814 89.1855C54.5986 89.1855 55.753 87.9949 55.753 86.5306V83.1437C55.753 81.6794 54.5986 80.4863 53.1814 80.4863ZM54.2999 86.5306C54.2999 87.1666 53.798 87.6868 53.1814 87.6868C52.5624 87.6868 52.0605 87.1666 52.0605 86.5306V83.1437C52.0605 82.5052 52.5624 81.9875 53.1814 81.9875C53.798 81.9875 54.2999 82.5052 54.2999 83.1437V86.5306Z" fill="black"/>
<path d="M47.937 89.2891H44.658C43.2384 89.2891 42.0864 90.4797 42.0864 91.9439C42.0864 93.4082 43.2384 94.6013 44.658 94.6013H47.937C49.3542 94.6013 50.5086 93.4082 50.5086 91.9439C50.5086 90.4797 49.3542 89.2891 47.937 89.2891ZM47.937 93.1H44.658C44.039 93.1 43.5371 92.5824 43.5371 91.9439C43.5371 91.3079 44.039 90.7878 44.658 90.7878H47.937C48.5536 90.7878 49.0555 91.3079 49.0555 91.9439C49.0555 92.5824 48.5536 93.1 47.937 93.1Z" fill="black"/>
<path d="M81.3249 98.917C79.0807 98.917 77.2524 100.803 77.2524 103.125C77.2524 105.444 79.0807 107.33 81.3249 107.33C83.5715 107.33 85.3998 105.444 85.3998 103.125C85.3998 100.803 83.5715 98.917 81.3249 98.917ZM81.3249 105.831C79.8814 105.831 78.7055 104.616 78.7055 103.125C78.7055 101.631 79.8814 100.416 81.3249 100.416C82.7708 100.416 83.9467 101.631 83.9467 103.125C83.9467 104.616 82.7708 105.831 81.3249 105.831Z" fill="black"/>
<path d="M64.588 98.917C62.3415 98.917 60.5132 100.803 60.5132 103.125C60.5132 105.444 62.3415 107.33 64.588 107.33C66.8346 107.33 68.6629 105.444 68.6629 103.125C68.6629 100.803 66.8346 98.917 64.588 98.917ZM64.588 105.831C63.1421 105.831 61.9663 104.616 61.9663 103.125C61.9663 101.631 63.1421 100.416 64.588 100.416C66.034 100.416 67.2098 101.631 67.2098 103.125C67.2098 104.616 66.034 105.831 64.588 105.831Z" fill="black"/>
<path d="M92.7344 86.1357C89.6322 86.1357 87.1108 88.7413 87.1108 91.9434C87.1108 95.148 89.6322 97.7536 92.7344 97.7536C95.8365 97.7536 98.3603 95.148 98.3603 91.9434C98.3603 88.7413 95.8365 86.1357 92.7344 86.1357ZM92.7344 96.2523C90.4329 96.2523 88.5615 94.3197 88.5615 91.9434C88.5615 89.5671 90.4329 87.6345 92.7344 87.6345C95.0359 87.6345 96.9072 89.5671 96.9072 91.9434C96.9072 94.3197 95.0359 96.2523 92.7344 96.2523Z" fill="black"/>
<path d="M92.7346 82.4263C87.6536 82.4263 83.5166 86.6957 83.5166 91.9439C83.5166 97.192 87.6536 101.464 92.7346 101.464C97.818 101.464 101.953 97.192 101.953 91.9439C101.953 86.6957 97.818 82.4263 92.7346 82.4263ZM92.7346 99.9627C88.4542 99.9627 84.9697 96.3662 84.9697 91.9439C84.9697 87.524 88.4542 83.925 92.7346 83.925C97.015 83.925 100.5 87.524 100.5 91.9439C100.5 96.3662 97.015 99.9627 92.7346 99.9627Z" fill="black"/>
<path d="M38.916 50.6803C46.8697 48.4691 53.9272 49.3763 59.8877 53.3771C60.0096 53.4584 60.1482 53.4979 60.2845 53.4979C60.5211 53.4979 60.7529 53.3771 60.8939 53.1552C61.1114 52.8076 61.0158 52.3442 60.6788 52.1174C54.3574 47.8775 46.908 46.9063 38.5384 49.2308C38.1512 49.3393 37.9218 49.751 38.0245 50.1503C38.1297 50.5496 38.5288 50.7888 38.916 50.6803Z" fill="black"/>
<path d="M38.9146 58.6803C46.8683 56.4691 53.9258 57.3763 59.8863 61.3746C60.0082 61.4584 60.1469 61.4954 60.2831 61.4954C60.5197 61.4954 60.7539 61.3771 60.8925 61.1552C61.11 60.8076 61.0144 60.3417 60.6774 60.1174C54.356 55.8775 46.9066 54.9063 38.537 57.2308C38.1498 57.3393 37.9204 57.751 38.0255 58.1503C38.1283 58.5496 38.5274 58.7863 38.9146 58.6803Z" fill="black"/>
<path d="M59.8877 69.3763C60.0096 69.4576 60.1482 69.4971 60.2845 69.4971C60.5211 69.4971 60.7529 69.3763 60.8939 69.1569C61.1114 68.8093 61.0158 68.3434 60.6788 68.1191C54.3574 63.8767 46.908 62.9055 38.5384 65.2325C38.1512 65.3385 37.9218 65.7502 38.0245 66.152C38.1297 66.5513 38.5288 66.788 38.916 66.6795C46.8697 64.4708 53.9272 65.378 59.8877 69.3763Z" fill="black"/>
<path d="M128.967 80.265L112.829 25.5728C112.766 25.3623 112.622 25.1886 112.429 25.0885C112.238 24.9885 112.014 24.9727 111.808 25.0438L80.39 35.9775C79.9878 36.117 79.7685 36.5513 79.8886 36.9619L80.2777 38.2832C75.6216 39.2123 71.2371 40.9758 67.2234 43.5368C57.7963 37.5225 46.4393 35.9906 33.4581 38.9781C33.0978 39.0623 32.8418 39.386 32.8418 39.7598V96.8024C31.3429 102.014 30.0111 109.202 29.1232 114.566C28.7394 116.885 29.259 119.225 30.5882 121.155C31.9174 123.084 33.9073 124.392 36.1949 124.837C39.1875 125.418 42.2298 124.424 44.3319 122.178C47.6954 118.583 54.2918 112.55 60.6897 112.55H86.182C92.5799 112.55 99.1763 118.583 102.54 122.178C104.245 124.002 106.572 125 108.987 125C109.549 125 110.113 124.945 110.674 124.837C112.962 124.392 114.954 123.086 116.283 121.155C117.613 119.225 118.132 116.885 117.748 114.566C116.764 108.618 115.231 100.422 113.531 95.1705C112.732 92.6937 111.64 90.1485 110.371 87.7375C112.108 88.3403 114.001 88.6535 115.957 88.6535C122.245 88.6535 127.719 85.3107 128.972 80.7072C129.011 80.5624 129.009 80.4098 128.967 80.265ZM68.0146 44.9292C71.9212 42.4287 76.1935 40.7152 80.7347 39.8282L82.9648 47.3876C79.1417 47.9535 75.5354 49.3327 72.2398 51.4937C71.8716 51.7358 71.7672 52.2306 72.0048 52.6018C72.1563 52.8387 72.4122 52.9676 72.6707 52.9676C72.8196 52.9676 72.9684 52.9255 73.1042 52.836C76.2718 50.7593 79.745 49.4512 83.4244 48.9405L85.3281 55.3997C80.6067 55.6892 76.2065 57.15 72.2372 59.7505C71.8716 59.99 71.7672 60.4875 72.0048 60.8586C72.1563 61.0929 72.4122 61.2219 72.6707 61.2219C72.8196 61.2219 72.9684 61.1797 73.1016 61.0929C76.9403 58.5766 81.2099 57.1974 85.7955 56.9816L88.0439 64.6015C87.3389 64.5172 86.6233 64.4725 85.9026 64.4725C78.5803 64.4725 72.6211 68.9418 72.6211 74.4349C72.6211 75.951 73.0676 77.4197 73.9268 78.7595H68.0146V44.9292ZM34.4296 40.402C46.7475 37.6936 57.509 39.2176 66.4295 44.9292V78.7595H64.6877C63.7163 77.5382 60.0473 73.6348 52.7171 73.6348C48.7739 73.6348 44.661 76.1879 40.8249 81.0152C38.3597 84.1131 36.0747 88.135 34.4296 92.1884V40.402ZM112.024 95.668C113.693 100.824 115.205 108.934 116.182 114.83C116.84 118.799 114.288 122.505 110.377 123.263C107.919 123.739 105.42 122.923 103.694 121.078C99.3721 116.456 92.8254 110.95 86.182 110.95H60.6897C54.0463 110.95 47.4996 116.456 43.1777 121.078C41.4516 122.923 38.9525 123.739 36.4952 123.263C32.5807 122.505 30.032 118.799 30.6875 114.83C31.6641 108.934 33.1787 100.824 34.8474 95.668C36.409 90.8381 39.1066 85.7345 42.0627 82.018C44.52 78.9253 48.3665 75.2351 52.7171 75.2351C57.8877 75.2351 61.0056 77.3434 62.5176 78.7595H61.1023C60.6636 78.7595 60.3084 79.1174 60.3084 79.5596C60.3084 80.0018 60.6636 80.3624 61.1023 80.3624H85.7668C86.2055 80.3624 86.5607 80.0018 86.5607 79.5596C86.5607 79.1174 86.2055 78.7595 85.7668 78.7595H84.354C85.866 77.3434 88.984 75.2351 94.152 75.2351C98.5052 75.2351 102.349 78.9253 104.809 82.018C107.763 85.7345 110.46 90.8381 112.024 95.668ZM96.4317 56.6683C95.267 56.3525 94.1076 56.0919 92.9768 55.8892L90.9243 48.9405C92.5773 49.1485 94.2851 49.488 96.0191 49.9591C96.087 49.9776 96.1575 49.9881 96.2254 49.9881C96.5753 49.9881 96.8965 49.7512 96.9905 49.3932C97.1054 48.9668 96.8548 48.5273 96.4317 48.4141C94.3844 47.8561 92.371 47.4745 90.4334 47.2718L89.979 45.732L100.017 42.2392V75.4404C99.5131 75.1351 99.0118 74.8666 98.5078 74.6402L93.4861 57.6159C94.3191 57.787 95.1678 57.9844 96.0191 58.216C96.087 58.2344 96.1575 58.245 96.2254 58.245C96.5753 58.245 96.8965 58.0081 96.9905 57.6501C97.1054 57.2237 96.8548 56.7842 96.4317 56.6683ZM101.605 76.5327V41.6865L109.29 39.0123L118.098 68.8602C117.393 68.7759 116.678 68.7312 115.957 68.7312C109.17 68.7312 103.558 72.5714 102.772 77.504C102.383 77.1592 101.994 76.8354 101.605 76.5327ZM115.957 87.0505C113.463 87.0505 111.089 86.4952 109.081 85.4423C108.125 83.8447 107.102 82.3444 106.047 81.0152C105.459 80.2782 104.866 79.5912 104.268 78.9621C104.263 78.8726 104.263 78.7831 104.263 78.6937C104.263 74.0822 109.51 70.3341 115.957 70.3341C117.012 70.3341 118.057 70.4342 119.065 70.6342C119.336 70.6868 119.618 70.5947 119.806 70.3868C119.992 70.1789 120.057 69.8867 119.979 69.6182L110.575 37.7541C110.515 37.5436 110.371 37.3699 110.178 37.2698C109.985 37.1698 109.76 37.154 109.557 37.2251L88.7412 44.4686C88.3416 44.6081 88.1197 45.0424 88.2398 45.453L96.6537 73.9717C95.8154 73.748 94.9798 73.6348 94.152 73.6348C86.8244 73.6348 83.1528 77.5382 82.184 78.7595H75.9062C74.7938 77.4539 74.2088 75.9642 74.2088 74.4349C74.2088 69.8262 79.4551 66.0754 85.9052 66.0754C86.9576 66.0754 88.0048 66.1781 89.0128 66.3755C89.2843 66.4308 89.5638 66.336 89.7518 66.1281C89.9372 65.9201 90.0051 65.6306 89.9241 65.3621L81.6278 37.2409L111.544 26.831L127.379 80.4966C126.196 84.3079 121.444 87.0505 115.957 87.0505Z" fill="black"/>
</g>
<defs>
<clipPath id="clip0_93_23">
<rect width="150" height="150" fill="white"/>
</clipPath>
</defs>
</svg>
