<svg width="75" height="75" viewBox="0 0 75 75" fill="none" xmlns="http://www.w3.org/2000/svg">
<g clip-path="url(#clip0_92_3)">
<rect width="75" height="75" fill="white"/>
<circle cx="37.5" cy="37.5" r="37.5" fill="#FDE9EA"/>
<g filter="url(#filter0_d_92_3)">
<mask id="mask0_92_3" style="mask-type:luminance" maskUnits="userSpaceOnUse" x="19" y="27" width="38" height="28">
<path d="M19 27.8428H56.9213V54.9214H19V27.8428Z" fill="white"/>
</mask>
<g mask="url(#mask0_92_3)">
<path d="M18.98 43.8344C18.98 43.5295 18.98 43.227 18.98 42.9221C19.1024 42.911 19.1232 42.7864 19.1538 42.6765C19.847 40.2164 20.5403 37.755 21.2345 35.2949C21.5555 34.3333 21.8616 33.3668 22.0562 32.3497C22.4038 31.2017 22.7474 30.0513 23.1029 28.9058C23.3538 28.0935 23.9236 27.8849 24.5339 28.3244C25.554 29.0588 26.6413 29.6106 27.7335 30.1426C28.568 31.1314 29.6147 31.082 30.6507 31.0733C31.6175 31.2844 32.5941 31.3387 33.5718 31.3881C33.9481 31.4362 34.3332 31.6276 34.6956 31.3264C35.297 30.8265 35.8965 30.3241 36.4979 29.8217C37.4084 29.2242 38.4176 29.1934 39.4062 29.0428C40.3572 29.0835 41.2627 29.3575 42.1327 29.8254C43.1114 30.4636 43.9784 31.5523 45.2435 31.0141C46.3317 31.0598 47.3608 30.8684 48.1794 29.8513C48.9339 29.3464 49.6499 28.7626 50.3411 28.1306C50.5367 28.1244 50.7332 28.1195 50.9287 28.1121C50.9712 28.1417 51.0136 28.1713 51.0561 28.2009C51.5548 29.3378 52.0555 30.4771 52.5532 31.614C52.9295 32.683 53.3255 33.7396 53.8321 34.7234C53.8972 34.9024 53.9634 35.0814 54.0286 35.2604C54.9895 37.6304 55.9513 40.0028 56.9122 42.3753C56.9122 42.5592 56.9122 42.7395 56.9122 42.9221C55.4684 44.1627 53.7975 44.828 52.2461 45.7946C51.9864 45.955 51.6713 45.8415 51.537 45.5329C51.2309 44.8243 50.9169 44.9971 50.5426 45.4156C50.2937 45.6933 50.0182 45.9402 49.7555 46.2019C49.4849 46.3562 49.2104 46.4883 49.3635 46.9882C49.6745 48.0053 49.4356 48.8805 48.8855 49.6631C48.6426 49.8458 48.4006 50.0297 48.1597 50.2136C47.8407 50.3914 47.3084 49.9149 47.179 50.6049C46.9302 51.9195 46.2517 52.6046 45.2474 52.8873C44.644 52.833 43.8965 52.1714 43.62 53.4934C43.2378 53.9044 42.8013 54.1957 42.3184 54.3784C41.8681 54.3389 41.4099 54.3081 41.002 54.0316C40.8015 53.8946 40.6584 53.9575 40.4776 54.0834C40.1261 54.3241 39.7597 54.5303 39.3983 54.7487C38.4492 54.903 37.5585 54.6302 36.6904 54.1859C36.4584 53.9822 36.2688 53.723 35.9261 53.9859C35.0936 54.6179 34.3046 54.3883 33.5678 53.6859C33.5204 53.6242 33.474 53.56 33.4266 53.4983C33.2884 53.2169 33.2834 52.7725 32.8677 52.8392C31.9927 52.9786 31.3587 52.4318 30.8037 51.6739C30.7356 51.2258 30.5578 51.0678 30.1599 51.0678C29.2977 51.0666 28.6351 50.5519 28.2589 49.5606C28.1453 49.2632 28.0248 49.1274 27.7444 49.0718C26.744 48.8768 26.1505 48.1275 26.0547 46.8524C26.0241 46.4401 25.87 46.2636 25.5856 46.1809C25.1837 45.9316 24.8519 45.186 24.3699 45.5489C23.9433 45.8698 23.6155 45.8217 23.2116 45.6686C22.1213 45.2514 21.0301 44.8367 19.932 44.4466C19.5774 44.317 19.2516 44.1504 18.98 43.8344ZM47.9681 44.775C48.1844 45.2675 48.4421 45.2885 48.7739 44.9255C49.0109 44.6663 49.2805 44.4565 49.5363 44.2244C50.3974 43.4455 50.3974 43.4455 49.7753 42.3469C48.8016 40.0609 47.9424 37.7094 47.2492 35.2665C47.1652 34.89 47.0852 34.5098 46.9954 34.1346C46.6191 32.5546 46.6181 32.5546 45.2366 32.7891C44.2757 32.936 43.3267 33.0014 42.5297 32.1176C41.5076 31.2597 40.4174 30.5611 39.1563 30.9055C38.6033 31.0561 37.9594 30.761 37.4874 31.3609C37.0953 31.4103 36.7655 31.6239 36.4781 31.9522C36.174 32.1843 35.8668 32.4114 35.5656 32.6484C34.7865 33.2582 34.1485 33.9889 34.1633 35.2641C34.0774 35.9664 33.8631 36.5774 33.4375 37.0786C33.2894 37.2526 33.2054 37.5365 33.1373 37.7896C32.9763 38.3932 33.1709 38.7216 33.6785 38.7561C34.2354 38.7969 34.7282 38.5993 35.1528 38.1377C35.5972 37.655 36.0011 37.102 36.2164 36.4305C36.5265 35.4554 37.1329 35.1591 37.8656 35.0986C38.2972 35.0616 38.7327 35.1258 39.1682 35.1431C39.3439 35.2455 39.5207 35.3468 39.6965 35.448C40.5675 36.391 41.4355 37.3341 42.3056 38.2772C42.4705 38.5339 42.6423 38.7759 42.8882 38.9178C43.6259 39.8868 44.4218 40.7731 45.2474 41.6199C45.5358 42.068 45.8696 42.4543 46.2498 42.7777C46.7771 43.5035 47.3558 44.1615 47.9681 44.775ZM32.6919 35.2628C32.8242 34.6864 32.9388 34.1025 33.0948 33.5359C33.1995 33.1533 33.0909 33.0743 32.8114 33.057C32.0905 33.0187 31.3716 32.9508 30.6517 32.8928C30.0285 32.8163 29.4024 32.7583 28.7813 32.6521C28.4208 32.5904 28.3339 32.7916 28.2835 33.1854C28.1976 33.8717 28.0614 34.5456 27.9468 35.2246C27.8243 35.7825 27.7029 36.3404 27.5794 36.8984C26.9682 38.7969 26.4013 40.7188 25.6715 42.5543C25.1353 43.8998 25.1521 43.8936 26.2255 44.6219C26.4961 44.8058 26.6837 44.8996 26.8743 44.4985C27.0768 44.0689 27.4244 43.8331 27.7621 43.5974C28.5956 43.3233 29.3402 43.5085 29.8893 44.375C30.1441 44.7774 30.385 44.57 30.6497 44.5034C31.2936 44.5059 31.9562 44.6132 32.3453 45.2872C32.7126 45.9242 33.0909 45.9044 33.5698 45.6612C34.0685 45.7464 34.5406 45.9217 34.979 46.2315C35.2289 46.6204 35.5686 46.9561 35.6417 47.4647C35.7286 48.0769 36.0169 48.2843 36.4633 48.2905C36.7497 48.562 37.1111 49.1336 37.3076 49.0558C38.1935 48.7028 38.5589 49.5742 39.099 50.0421C39.8229 50.7901 40.5369 51.5505 41.2756 52.275C41.6874 52.6799 42.189 52.875 42.5673 52.2812C42.9396 51.6949 42.5939 51.174 42.2443 50.7938C41.316 49.7791 40.3591 48.8077 39.4141 47.8202C38.9637 47.2215 38.465 46.6932 37.9328 46.2118C37.6316 45.8637 37.3333 45.5106 37.0272 45.17C36.6875 44.7885 36.5867 44.338 36.8968 43.8936C37.2119 43.4455 37.5851 43.5393 37.9308 43.8924C38.3406 44.3145 38.7504 44.7367 39.1612 45.1588C39.4466 45.5637 39.7646 45.9205 40.13 46.2081C40.7206 46.9647 41.3635 47.6461 42.0508 48.2658C42.5603 48.936 43.1252 49.5286 43.7316 50.0618C44.1631 50.5815 44.5532 51.1974 45.2573 51.0789C45.9723 50.4235 46.0384 49.8532 45.4005 49.1644C43.461 47.0672 41.4997 45.0021 39.5484 42.9259C39.4792 42.7962 39.4091 42.6654 39.341 42.5358C39.2837 42.2432 39.3696 41.9754 39.4279 41.7001C39.9009 41.2249 40.2959 41.4076 40.7137 41.8618C42.508 43.8134 44.3191 45.739 46.1204 47.6782C46.4739 48.0609 46.8443 48.3942 47.3084 48.5262C47.5859 48.604 47.8397 48.5447 48.0244 48.2436C48.2169 47.9263 48.1567 47.6004 48.0026 47.3116C47.7568 46.8574 47.4427 46.4809 47.0714 46.1858C46.5036 45.5267 45.9377 44.8675 45.3699 44.2096C43.3731 41.7841 41.3081 39.4474 39.1958 37.181C38.4749 36.4096 37.7747 36.5984 37.2711 37.5847C37.0371 38.0402 36.7714 38.4722 36.5216 38.9166C36.4752 38.9191 36.4564 38.9487 36.4594 39.0042C35.6594 39.9967 34.6946 40.5003 33.5718 40.5398C32.7581 40.3374 32.0668 39.9263 31.7498 38.8734C31.5987 37.9044 31.809 37.0502 32.2218 36.2281C32.3808 35.9072 32.7156 35.7183 32.6919 35.2628ZM34.0192 47.619C33.8977 47.4202 33.7387 47.4264 33.5688 47.4906C33.2113 47.4239 33.0464 47.7436 32.8845 48.0411C32.6129 48.541 32.3759 49.0706 32.0905 49.5594C31.7982 50.0581 31.7804 50.5309 32.1655 50.9148C32.5754 51.3221 32.9941 51.211 33.3062 50.7049C33.6459 50.1531 33.9668 49.5829 34.2631 48.9953C34.5317 48.4596 34.505 47.9646 34.0192 47.619ZM52.408 35.2517C52.0762 34.2432 51.6921 33.2681 51.223 32.3447C51.1746 32.0719 51.0996 31.8152 50.9327 31.614C50.4517 30.0969 50.4517 30.0969 49.4049 30.9487C49.2667 31.0622 49.1403 31.1968 49.0089 31.3227C47.9424 32.0423 47.9355 32.0448 48.2841 33.4816C48.4283 34.0803 48.607 34.6666 48.769 35.2604C49.5165 38.1945 50.6305 40.9052 51.9913 43.464C52.1572 43.7776 52.2925 43.9553 52.6283 43.7418C53.3837 43.2591 54.157 42.8246 54.9312 42.3938C55.1909 42.2506 55.2492 42.0889 55.1119 41.7705C54.6962 40.8188 54.2942 39.8559 53.8874 38.8956C53.4519 37.6439 52.966 36.4256 52.408 35.2517ZM26.4299 31.4017C25.8068 31.0277 25.1778 30.6635 24.5586 30.2747C24.3127 30.1204 24.1754 30.1327 24.0776 30.4969C23.651 32.088 23.2086 33.6754 22.7711 35.2628C22.0048 37.6563 21.3303 40.0929 20.6785 42.5383C20.5126 42.7839 20.6084 42.9098 20.8099 42.9863C21.6187 43.2937 22.4294 43.5887 23.2343 43.9121C23.497 44.0146 23.577 43.8232 23.6727 43.6023C24.8232 40.9434 25.8601 38.2253 26.4378 35.2702C26.7499 34.3593 26.8269 33.373 27.0086 32.4213C27.135 31.7671 26.9296 31.4696 26.4299 31.4017ZM30.8344 46.2167C30.7929 46.2315 30.6823 46.2352 30.6131 46.3056C30.0562 46.8672 29.6503 47.5807 29.4518 48.4337C29.3669 48.8027 29.5644 49.1496 29.8755 49.2854C30.1638 49.4101 30.467 49.4039 30.6675 49.0595C30.9687 48.546 31.2679 48.0275 31.5207 47.4782C31.7863 46.9018 31.4219 46.2081 30.8344 46.2167ZM37.7254 50.8197C37.5298 51.2777 37.3738 51.6813 37.1882 52.0627C37.0904 52.2664 37.0331 52.3874 37.2296 52.5738C37.7777 53.0873 38.9055 53.1848 39.5454 52.7095C38.946 52.0862 38.3584 51.4764 37.7254 50.8197ZM36.2628 50.6222C36.2727 50.3284 36.1986 50.1198 36.0229 49.9754C35.8412 49.8285 35.6377 49.8125 35.4876 49.9964C35.0551 50.521 34.7203 51.1481 34.4537 51.8196C34.3342 52.1195 34.4576 52.4269 34.7075 52.5676C34.9919 52.7281 35.141 52.5812 35.2012 52.1936C35.2447 51.9158 35.4392 51.7751 35.6456 51.6492C35.9913 51.4394 36.1354 51.0147 36.2628 50.6222ZM28.9412 45.7884C28.9215 45.4378 28.7408 45.2243 28.4337 45.1983C28.1167 45.1712 27.4165 46.2365 27.4254 46.7166C27.4323 47.1215 27.614 47.3289 27.928 47.3486C28.2342 47.3647 28.9472 46.2932 28.9412 45.7884Z" fill="black"/>
</g>
</g>
<g filter="url(#filter1_d_92_3)">
<mask id="mask1_92_3" style="mask-type:luminance" maskUnits="userSpaceOnUse" x="34" y="17" width="3" height="10">
<path d="M34.2041 17H36.7322V26.2616H34.2041V17Z" fill="white"/>
</mask>
<g mask="url(#mask1_92_3)">
<path d="M35.321 17.0259C35.9619 18.0578 35.8128 19.349 36.032 20.5155C36.267 21.7684 36.4152 23.0484 36.6008 24.3161C36.5722 24.863 36.8013 25.4369 36.4843 25.9504C35.716 26.3084 35.4424 26.1245 35.2864 25.1518C35.24 24.8605 35.1876 24.5729 35.1383 24.284C34.9793 23.0706 34.8213 21.8585 34.6633 20.6438C34.5764 19.8958 34.529 19.1354 34.3917 18.4022C34.285 17.8221 34.4026 17.3987 34.7354 17.0259C34.9319 17.0259 35.1264 17.0259 35.321 17.0259Z" fill="black"/>
</g>
</g>
<g filter="url(#filter2_d_92_3)">
<mask id="mask2_92_3" style="mask-type:luminance" maskUnits="userSpaceOnUse" x="39" y="17" width="4" height="10">
<path d="M39.5142 17H42.0423V26.2616H39.5142V17Z" fill="white"/>
</mask>
<g mask="url(#mask2_92_3)">
<path d="M40.8646 17.0259C41.1076 17.0259 41.3505 17.0259 41.5944 17.0259C41.9045 17.4641 41.9519 17.9665 41.8749 18.5306C41.7761 19.2404 41.7218 19.9612 41.6477 20.6759C41.5184 21.8869 41.389 23.099 41.2596 24.3087C41.2073 24.6593 41.1638 25.0111 41.1016 25.3579C41.0049 25.8937 40.754 26.2381 40.2879 26.1196C39.8771 26.0159 39.7033 25.6406 39.7467 25.1172C39.7694 24.8518 39.7902 24.584 39.8099 24.3174C39.9472 23.1114 40.0815 21.9041 40.2188 20.6969C40.4933 19.4909 40.3185 18.159 40.8646 17.0259Z" fill="black"/>
</g>
</g>
<g filter="url(#filter3_d_92_3)">
<path d="M44.2369 24.3367C44.9108 23.3256 45.6076 22.3264 46.2539 21.2963C46.6251 20.7054 47.0624 20.4929 47.7099 20.8248C48.0342 21.2581 48.003 21.6759 47.7063 22.1187C47.3327 22.6774 46.9951 23.2599 46.6419 23.8293C46.0424 24.7318 45.4442 25.633 44.8447 26.5355C44.4255 26.7479 44.0062 26.8243 43.6602 26.4209C43.283 25.9792 43.486 25.565 43.7551 25.1543C43.9281 24.8905 44.0771 24.61 44.2369 24.3367Z" fill="black"/>
</g>
<g filter="url(#filter4_d_92_3)">
<path d="M30.8158 26.2019C30.3945 25.5257 29.9665 24.855 29.4325 24.2576C29.1843 23.8723 28.9464 23.4792 28.6823 23.105C28.3783 22.6709 28.2975 22.23 28.779 21.9069C29.2447 21.5938 29.6659 21.7614 29.971 22.2178C30.0758 22.3733 30.2044 22.5143 30.3228 22.662C30.6996 23.1972 31.0776 23.7335 31.4533 24.2698C31.6628 24.5896 31.8586 24.9183 32.0817 25.227C32.3971 25.6633 32.6134 26.113 32.092 26.5194C31.5592 26.9336 31.1675 26.5972 30.8158 26.2019Z" fill="black"/>
</g>
</g>
<defs>
<filter id="filter0_d_92_3" x="15" y="28.0991" width="45.9121" height="40.6929" filterUnits="userSpaceOnUse" color-interpolation-filters="sRGB">
<feFlood flood-opacity="0" result="BackgroundImageFix"/>
<feColorMatrix in="SourceAlpha" type="matrix" values="0 0 0 0 0 0 0 0 0 0 0 0 0 0 0 0 0 0 127 0" result="hardAlpha"/>
<feOffset dy="10"/>
<feGaussianBlur stdDeviation="2"/>
<feComposite in2="hardAlpha" operator="out"/>
<feColorMatrix type="matrix" values="0 0 0 0 0 0 0 0 0 0 0 0 0 0 0 0 0 0 0.25 0"/>
<feBlend mode="normal" in2="BackgroundImageFix" result="effect1_dropShadow_92_3"/>
<feBlend mode="normal" in="SourceGraphic" in2="effect1_dropShadow_92_3" result="shape"/>
</filter>
<filter id="filter1_d_92_3" x="30.3535" y="17.0259" width="10.3008" height="23.0938" filterUnits="userSpaceOnUse" color-interpolation-filters="sRGB">
<feFlood flood-opacity="0" result="BackgroundImageFix"/>
<feColorMatrix in="SourceAlpha" type="matrix" values="0 0 0 0 0 0 0 0 0 0 0 0 0 0 0 0 0 0 127 0" result="hardAlpha"/>
<feOffset dy="10"/>
<feGaussianBlur stdDeviation="2"/>
<feComposite in2="hardAlpha" operator="out"/>
<feColorMatrix type="matrix" values="0 0 0 0 0 0 0 0 0 0 0 0 0 0 0 0 0 0 0.25 0"/>
<feBlend mode="normal" in2="BackgroundImageFix" result="effect1_dropShadow_92_3"/>
<feBlend mode="normal" in="SourceGraphic" in2="effect1_dropShadow_92_3" result="shape"/>
</filter>
<filter id="filter2_d_92_3" x="35.7402" y="17.0259" width="10.167" height="23.1172" filterUnits="userSpaceOnUse" color-interpolation-filters="sRGB">
<feFlood flood-opacity="0" result="BackgroundImageFix"/>
<feColorMatrix in="SourceAlpha" type="matrix" values="0 0 0 0 0 0 0 0 0 0 0 0 0 0 0 0 0 0 127 0" result="hardAlpha"/>
<feOffset dy="10"/>
<feGaussianBlur stdDeviation="2"/>
<feComposite in2="hardAlpha" operator="out"/>
<feColorMatrix type="matrix" values="0 0 0 0 0 0 0 0 0 0 0 0 0 0 0 0 0 0 0.25 0"/>
<feBlend mode="normal" in2="BackgroundImageFix" result="effect1_dropShadow_92_3"/>
<feBlend mode="normal" in="SourceGraphic" in2="effect1_dropShadow_92_3" result="shape"/>
</filter>
<filter id="filter3_d_92_3" x="39.4531" y="20.668" width="12.4883" height="20.0415" filterUnits="userSpaceOnUse" color-interpolation-filters="sRGB">
<feFlood flood-opacity="0" result="BackgroundImageFix"/>
<feColorMatrix in="SourceAlpha" type="matrix" values="0 0 0 0 0 0 0 0 0 0 0 0 0 0 0 0 0 0 127 0" result="hardAlpha"/>
<feOffset dy="10"/>
<feGaussianBlur stdDeviation="2"/>
<feComposite in2="hardAlpha" operator="out"/>
<feColorMatrix type="matrix" values="0 0 0 0 0 0 0 0 0 0 0 0 0 0 0 0 0 0 0.25 0"/>
<feBlend mode="normal" in2="BackgroundImageFix" result="effect1_dropShadow_92_3"/>
<feBlend mode="normal" in="SourceGraphic" in2="effect1_dropShadow_92_3" result="shape"/>
</filter>
<filter id="filter4_d_92_3" x="24.436" y="21.7466" width="11.9702" height="18.9624" filterUnits="userSpaceOnUse" color-interpolation-filters="sRGB">
<feFlood flood-opacity="0" result="BackgroundImageFix"/>
<feColorMatrix in="SourceAlpha" type="matrix" values="0 0 0 0 0 0 0 0 0 0 0 0 0 0 0 0 0 0 127 0" result="hardAlpha"/>
<feOffset dy="10"/>
<feGaussianBlur stdDeviation="2"/>
<feComposite in2="hardAlpha" operator="out"/>
<feColorMatrix type="matrix" values="0 0 0 0 0 0 0 0 0 0 0 0 0 0 0 0 0 0 0.25 0"/>
<feBlend mode="normal" in2="BackgroundImageFix" result="effect1_dropShadow_92_3"/>
<feBlend mode="normal" in="SourceGraphic" in2="effect1_dropShadow_92_3" result="shape"/>
</filter>
<clipPath id="clip0_92_3">
<rect width="75" height="75" fill="white"/>
</clipPath>
</defs>
</svg>
