<svg width="75" height="75" viewBox="0 0 75 75" fill="none" xmlns="http://www.w3.org/2000/svg">
<g clip-path="url(#clip0_92_5)">
<rect width="75" height="75" fill="white"/>
<circle cx="37.5" cy="37.5" r="37.5" fill="#FDE9EA"/>
<g filter="url(#filter0_d_92_5)">
<g filter="url(#filter1_d_92_5)">
<mask id="mask0_92_5" style="mask-type:luminance" maskUnits="userSpaceOnUse" x="22" y="19" width="32" height="39">
<path d="M22 19H53.5421V57.7931H22V19Z" fill="white"/>
</mask>
<g mask="url(#mask0_92_5)">
<path d="M52.4988 57.7933C52.3914 57.7933 52.2829 57.7761 52.1755 57.7427H52.1744C51.5047 57.5248 50.8391 57.2805 50.1946 57.014C48.1316 56.1607 46.1455 55.0398 44.1246 53.5834C42.2807 52.2558 31.3928 37.4512 25.7904 29.2078C22.0014 23.6287 22.0193 23.1412 22.0277 22.9071C22.0751 21.5866 23.2904 20.1292 24.9163 19.4411C26.2495 18.8766 27.5311 18.9759 28.4326 19.7137C28.5242 19.7867 28.7359 19.96 32.3195 24.5986C37.4596 31.2479 46.4446 43.0881 49.4017 47.071C50.8539 49.0269 51.7995 50.4316 52.6799 53.4375C52.9495 54.3547 53.2075 55.4056 53.4697 56.6492C53.5413 56.9856 53.4234 57.3231 53.1559 57.5501C52.9695 57.7102 52.7357 57.7933 52.4988 57.7933ZM52.444 56.9795C52.5198 57.0029 52.5746 56.9714 52.6009 56.9491C52.6252 56.9289 52.6652 56.8822 52.6483 56.8093C52.3893 55.585 52.1365 54.5523 51.8733 53.6554C51.0308 50.7741 50.1199 49.4212 48.7193 47.5372C45.7643 43.5563 36.7836 31.7252 31.6477 25.0779C28.5295 21.0393 27.9766 20.4049 27.8839 20.3198C26.972 19.5739 25.7409 19.9711 25.2554 20.1769C23.9359 20.7353 22.9134 21.9109 22.866 22.9193C22.8986 23.0966 23.2735 24.03 26.4928 28.769C32.467 37.5587 43.0452 51.8008 44.627 52.9399C46.5952 54.3577 48.5255 55.4492 50.5264 56.2752C51.1498 56.5326 51.7964 56.7698 52.444 56.9795Z" fill="black"/>
</g>
</g>
<path d="M27.7421 30.6536C27.667 30.6536 27.5909 30.6328 27.5251 30.5895C27.3609 30.4829 27.3247 30.2755 27.4453 30.1281C28.5388 28.7857 30.0145 27.7222 31.7099 27.051C31.9863 26.9419 32.272 26.8645 32.5224 26.7962C32.6068 26.772 32.6884 26.7504 32.7682 26.7279C32.962 26.6721 33.1698 26.767 33.2329 26.9419C33.295 27.1151 33.1893 27.3017 32.9936 27.3575C32.911 27.3808 32.8248 27.4041 32.7366 27.4291C32.4927 27.4957 32.2432 27.5632 32.0067 27.6573C30.429 28.2818 29.0564 29.2712 28.0408 30.5195C27.9684 30.607 27.8562 30.6536 27.7421 30.6536Z" fill="black"/>
<mask id="mask1_92_5" style="mask-type:luminance" maskUnits="userSpaceOnUse" x="24" y="22" width="12" height="12">
<path d="M24.6284 22.1133H35.4731V33.01H24.6284V22.1133Z" fill="white"/>
</mask>
<g mask="url(#mask1_92_5)">
<path d="M28.759 32.8192L28.4209 32.3196C24.6298 26.7415 24.6477 26.254 24.6561 26.0199C24.7035 24.6994 25.9188 23.242 27.5447 22.5539C28.878 21.9894 30.1596 22.0887 31.061 22.8265C31.1526 22.8995 31.3643 23.0728 34.9479 27.7114L35.3007 28.1674L34.572 28.3843C34.3003 28.4634 34.0212 28.5465 33.7601 28.6559C31.9161 29.4373 30.2649 30.7426 29.1149 32.3287L28.759 32.8192ZM25.4944 26.0321C25.527 26.2034 25.8756 27.077 28.7906 31.3943C30.0069 29.8893 31.597 28.6954 33.4199 27.9212C33.5863 27.8502 33.7569 27.7914 33.9243 27.7367C31.1147 24.1055 30.6019 23.5147 30.5123 23.4336C29.6004 22.6887 28.3693 23.0849 27.8838 23.2917C26.5643 23.8481 25.5418 25.0237 25.4944 26.0321Z" fill="black"/>
</g>
<path d="M46.9298 53.9612C46.8678 53.9612 46.8079 53.9355 46.7662 53.8862L44.1166 50.6927C43.5464 50.0037 42.9549 49.2911 42.3933 48.5733C41.6649 47.641 40.9632 46.6665 40.285 45.7269L30.26 31.8254C30.1948 31.734 30.2183 31.6088 30.3135 31.5461C30.4098 31.4835 30.5403 31.5061 30.6055 31.5975L40.6284 45.4969C41.3055 46.4354 42.005 47.4048 42.7292 48.332C43.2876 49.0467 43.8748 49.7563 44.446 50.4432L47.0945 53.6367C47.1673 53.724 47.1523 53.8503 47.0614 53.9201C47.0229 53.9468 46.9758 53.9612 46.9298 53.9612Z" fill="black"/>
<path d="M49.0687 52.7615C49.0107 52.7615 48.9506 52.7367 48.9095 52.6902C48.4215 52.1288 47.9283 51.5189 47.4509 50.9286C46.7648 50.0798 46.1176 49.2796 45.6096 48.7782C44.503 47.6876 36.0314 35.7274 32.7526 30.9709C32.6873 30.8779 32.7126 30.7517 32.8085 30.6887C32.9023 30.6256 33.0319 30.6504 33.0962 30.7445C36.8704 36.2195 44.875 47.4767 45.9058 48.4919C46.4307 49.0078 47.0852 49.8183 47.7786 50.6753C48.2529 51.2625 48.7462 51.8714 49.2289 52.4266C49.3026 52.5124 49.291 52.6395 49.2057 52.7129C49.1625 52.745 49.115 52.7615 49.0687 52.7615Z" fill="black"/>
<path d="M50.6752 51.0477C50.6143 51.0477 50.5534 51.0214 50.5113 50.9718C48.5508 48.545 46.6585 46.1142 44.8283 43.7633C43.0001 41.4154 41.1089 38.9856 39.1494 36.5618C38.2994 35.5083 37.4252 34.3182 36.5794 33.1666C35.7231 32.0017 34.8395 30.7964 34.0074 29.7753C33.9359 29.6883 33.9527 29.5648 34.042 29.497C34.1324 29.4282 34.2606 29.4444 34.332 29.5294C35.1715 30.5596 36.0583 31.768 36.9167 32.9368C37.7593 34.0844 38.6303 35.2715 39.4761 36.3169C41.4367 38.7427 43.3289 41.1746 45.1582 43.5244C46.9863 45.8733 48.8775 48.3031 50.836 50.7279C50.9074 50.8149 50.8906 50.9384 50.8003 51.0062C50.7625 51.0335 50.7173 51.0477 50.6752 51.0477Z" fill="black"/>
</g>
</g>
<defs>
<filter id="filter0_d_92_5" x="18.0269" y="19.0791" width="39.4634" height="46.7139" filterUnits="userSpaceOnUse" color-interpolation-filters="sRGB">
<feFlood flood-opacity="0" result="BackgroundImageFix"/>
<feColorMatrix in="SourceAlpha" type="matrix" values="0 0 0 0 0 0 0 0 0 0 0 0 0 0 0 0 0 0 127 0" result="hardAlpha"/>
<feOffset dy="4"/>
<feGaussianBlur stdDeviation="2"/>
<feComposite in2="hardAlpha" operator="out"/>
<feColorMatrix type="matrix" values="0 0 0 0 0 0 0 0 0 0 0 0 0 0 0 0 0 0 0.25 0"/>
<feBlend mode="normal" in2="BackgroundImageFix" result="effect1_dropShadow_92_5"/>
<feBlend mode="normal" in="SourceGraphic" in2="effect1_dropShadow_92_5" result="shape"/>
</filter>
<filter id="filter1_d_92_5" x="18.0269" y="19.0791" width="39.4634" height="52.7139" filterUnits="userSpaceOnUse" color-interpolation-filters="sRGB">
<feFlood flood-opacity="0" result="BackgroundImageFix"/>
<feColorMatrix in="SourceAlpha" type="matrix" values="0 0 0 0 0 0 0 0 0 0 0 0 0 0 0 0 0 0 127 0" result="hardAlpha"/>
<feOffset dy="10"/>
<feGaussianBlur stdDeviation="2"/>
<feComposite in2="hardAlpha" operator="out"/>
<feColorMatrix type="matrix" values="0 0 0 0 0 0 0 0 0 0 0 0 0 0 0 0 0 0 0.25 0"/>
<feBlend mode="normal" in2="BackgroundImageFix" result="effect1_dropShadow_92_5"/>
<feBlend mode="normal" in="SourceGraphic" in2="effect1_dropShadow_92_5" result="shape"/>
</filter>
<clipPath id="clip0_92_5">
<rect width="75" height="75" fill="white"/>
</clipPath>
</defs>
</svg>
